/* XPM */
static char *result[] = {
/* columns rows colors chars-per-pixel */
"50 50 183 2 ",
"   c #90625D",
".  c #91635D",
"X  c #91655D",
"o  c #92645D",
"O  c #92655D",
"+  c #93655D",
"@  c #91665D",
"#  c #92645E",
"$  c #92655E",
"%  c #94665C",
"&  c #96675C",
"*  c #97685C",
"=  c #96685F",
"-  c #96695F",
";  c #97695F",
":  c #9A6B5B",
">  c #9C6D5B",
",  c #9E6E5B",
"<  c #9F6F5B",
"1  c #98695C",
"2  c #9D6E5C",
"3  c #9E705D",
"4  c #A1715A",
"5  c #A2725A",
"6  c #A4735A",
"7  c #A77659",
"8  c #A7765A",
"9  c #A97859",
"0  c #AA7959",
"q  c #AA7A59",
"w  c #AB7A5A",
"e  c #AB7B5B",
"r  c #AC7B5A",
"t  c #AC7C5A",
"y  c #AA7A5C",
"u  c #AB7C5D",
"i  c #AC7D5C",
"p  c #AE7E5C",
"a  c #AF7F5C",
"s  c #AD7E5E",
"d  c #AD7F5E",
"f  c #9A6D60",
"g  c #9D7061",
"h  c #9E7161",
"j  c #9F7261",
"k  c #A27560",
"l  c #A37661",
"z  c #A17462",
"x  c #A37662",
"c  c #A57F63",
"v  c #A77B64",
"b  c #A77C64",
"n  c #A87C64",
"m  c #AA7E64",
"M  c #AA7E65",
"N  c #AF805D",
"B  c #B0815D",
"V  c #B2835F",
"C  c #B2845F",
"Z  c #9F8761",
"A  c #9B8C60",
"S  c #998E60",
"D  c #A18462",
"F  c #AE8160",
"G  c #AC8065",
"H  c #AD8165",
"J  c #AE8264",
"K  c #AF8364",
"L  c #B08362",
"P  c #B08462",
"I  c #B28563",
"U  c #B38663",
"Y  c #B48560",
"T  c #B58761",
"R  c #B18566",
"E  c #B68861",
"W  c #B68862",
"Q  c #B78962",
"!  c #B58864",
"~  c #B48966",
"^  c #BA8E65",
"/  c #BB8F66",
"(  c #B58A68",
")  c #B58D6A",
"_  c #B69364",
"`  c #BC9266",
"'  c #BE9B67",
"]  c #B7916D",
"[  c #BD9268",
"{  c #BD9269",
"}  c #BC916A",
"|  c #BD936A",
" . c #BE936A",
".. c #BF9669",
"X. c #BC946A",
"o. c #B89A68",
"O. c #BB9873",
"+. c #BE9E79",
"@. c #ACA965",
"#. c #B1A367",
"$. c #B6A266",
"%. c #BAA168",
"&. c #BEA76E",
"*. c #B8AD69",
"=. c #A5B263",
"-. c #A1B662",
";. c #A2B662",
":. c #AFB266",
">. c #ADBB66",
",. c #B0BB67",
"<. c #BAB26A",
"1. c #B2BB68",
"2. c #B6BA70",
"3. c #C1966A",
"4. c #C2986B",
"5. c #C59D6C",
"6. c #C3AB6D",
"7. c #C6AD6E",
"8. c #C7AE6E",
"9. c #C8AE6F",
"0. c #C6B06E",
"q. c #C5AA76",
"w. c #C5AA77",
"e. c #C3A278",
"r. c #C1A37D",
"t. c #C2A57F",
"y. c #CBAB7E",
"u. c #CABA71",
"i. c #ADC266",
"p. c #ACC767",
"a. c #ADC867",
"s. c #B4C66A",
"d. c #B9C36B",
"f. c #B8CF6C",
"g. c #B3C974",
"h. c #BED179",
"j. c #C3C46F",
"k. c #CCC172",
"l. c #C8C872",
"z. c #CDCA73",
"x. c #CDCB74",
"c. c #C1D570",
"v. c #C2D571",
"b. c #C2D671",
"n. c #C3D671",
"m. c #C4D771",
"M. c #CFD375",
"N. c #CADA74",
"B. c #CADB74",
"V. c #CBDC74",
"C. c #C9D97F",
"Z. c #CADA7F",
"A. c #D0D675",
"S. c #D0D776",
"D. c #D1DC76",
"F. c #D1DF77",
"G. c #D1E077",
"H. c #D2E077",
"J. c #C3A680",
"K. c #C3A780",
"L. c #C4A982",
"P. c #D0BD93",
"I. c #D0BE94",
"U. c #C7C185",
"Y. c #D3C296",
"T. c #D2C297",
"R. c #D6C698",
"E. c #D6CA9E",
"W. c #CBD392",
"Q. c #D4DB97",
"!. c #DDE49D",
"~. c #DEE59E",
"^. c #D8CDA1",
"/. c #DED5A5",
"(. c #E1DCAC",
"). c #E0DCAD",
"_. c #E3DFAF",
"`. c #E8E5B3",
"'. c #EAE7B4",
"]. c #EBE9B5",
"[. c #EFEEB8",
"{. c #F0EFB9",
"}. c None",
/* pixels */
"}.}.}.}.}.}.}.}.}.}.}.}.}.h j j j g }.}.}.}.}.}.}.}.}.}.}.}.}.}.g j j j h }.}.}.}.}.}.}.}.}.}.}.}.}.",
"}.}.}.}.}.}.}.}.}.}.}.  h H ( ( ( m f                         f m ( ( ( H h   }.}.}.}.}.}.}.}.}.}.}.",
"}.}.}.}.}.}.}.}.}.}.= - x ~ 3.3.3.R j ; ; ; ; ; ; ; ; ; ; ; ; j R 3.3.3.~ x - = }.}.}.}.}.}.}.}.}.}.",
"}.}.}.}.}.}.}.}.  # z M K U W W W I J G G G G G G G G G G G G J I W W W U K M z #   }.}.}.}.}.}.}.}.",
"}.}.}.}.}.}.}.}.  # v } / V w w w Y [ 4.4.4.4.4.4.4.4.4.4.4.4.[ Y w w w V / } v #   }.}.}.}.}.}.}.}.",
"}.}.}.}.}.}.}.}.  o l ! E a 0 0 0 B Q ^ ^ ^ ^ ^ ^ ^ ^ ^ ^ ^ ^ Q B 0 0 0 a E ! l o   }.}.}.}.}.}.}.}.",
"}.}.}.}.}.}.}.}.  . 3 u p r 0 0 0 t p N N N N N N N N N N N N p t 0 0 0 r p u 3 .   }.}.}.}.}.}.}.}.",
"}.}.}.}.}.}.}.}.  . > 7 0 0 0 0 0 0 0 0 0 0 0 0 0 0 0 0 0 0 0 0 0 0 0 0 0 0 8 > .   }.}.}.}.}.}.}.}.",
"}.}.}.}.}.}.}.}.  . > 7 0 0 0 0 0 0 0 0 0 0 0 0 0 0 0 0 0 0 0 0 0 0 0 0 0 0 8 > .   }.}.}.}.}.}.}.}.",
"}.}.}.}.}.}.}.}.  . > 7 0 0 q e i i i i i i i i i i i i i i i i i i e q 0 0 8 > .   }.}.}.}.}.}.}.}.",
"}.}.}.}.}.}.}.}.  . > 7 0 0 d ] r.t.t.t.t.t.t.t.t.t.t.t.t.t.t.t.t.r.] s 0 0 8 > .   }.}.}.}.}.}.}.}.",
"}.}.}.}.}.}.}.}.  . > 7 0 0 P K.E.^.^.^.^.^.^.^.^.^.^.^.^.^.^.^.^.E.J.L 0 0 8 > .   }.}.}.}.}.}.}.}.",
"}.}.}.}.}.}.}.}.  . > 7 F ) +.P.(._._._._._._._._._._._._._._._._.(.P.+.) F 8 > .   }.}.}.}.}.}.}.}.",
"}.}.}.}.}.}.}.}.  . > 7 ) L.T./.'.].].].].].].].].].].].].].].].].'./.T.L.) 8 > .   }.}.}.}.}.}.}.}.",
"}.}.}.}.}.}.}.}.  . 2 y O.I.).`.[.{.{.{.{.{.{.{.{.{.{.{.{.{.{.{.{.[.`.).I.O.y 2 .   }.}.}.}.}.}.}.}.",
"}.}.}.}.}.}.}.}.  o k U e.Y.).`.[.{.{.{.{.{.{.{.{.{.{.{.{.{.{.{.{.[.`.).Y.e.U k o   }.}.}.}.}.}.}.}.",
"}.}.}.}.}.}.}.}.  # v { y.R.).`.[.{.{.{.{.{.{.{.{.{.{.{.{.{.{.{.{.[.`.).R.y.{ v #   }.}.}.}.}.}.}.}.",
"}.}.}.}.}.}.}.}.  # n  .w.U.W.Q.!.~.~.~.~.~.~.~.~.~.~.~.~.~.~.~.~.!.Q.W.U.q.| n #   }.}.}.}.}.}.}.}.",
"}.}.}.}.}.}.}.}.  # n  .&.2.g.h.C.Z.Z.Z.Z.Z.Z.Z.Z.Z.Z.Z.Z.Z.Z.Z.Z.C.h.g.2.&.| n #   }.}.}.}.}.}.}.}.",
"}.}.}.}.}.}.}.}.  $ c o.*.,.a.f.n.m.m.m.m.m.m.m.m.m.m.m.m.m.m.m.m.n.f.a.,.*.o.c $   }.}.}.}.}.}.}.}.",
"}.}.}.}.}.}.}.}.  X Z @.1.s.f.c.B.V.V.V.V.V.V.V.V.V.V.V.V.V.V.V.V.B.c.f.s.1.@.Z X   }.}.}.}.}.}.}.}.",
"}.}.}.}.}.}.}.}.  @ S ;.p.f.b.B.G.H.H.H.H.H.H.H.H.H.H.H.H.H.H.H.H.F.N.v.f.p.-.S @   }.}.}.}.}.}.}.}.",
"}.}.}.}.}.}.}.}.  @ S ;.p.f.b.B.G.H.H.H.H.H.H.H.H.H.H.H.H.H.H.H.H.F.N.v.f.p.-.S @   }.}.}.}.}.}.}.}.",
"}.}.}.}.}.}.}.}.  @ S ;.p.f.b.B.G.H.H.H.H.H.H.H.H.H.H.H.H.H.H.H.H.F.N.v.f.p.-.S @   }.}.}.}.}.}.}.}.",
"}.}.}.}.}.}.}.}.  @ S ;.p.f.b.B.G.H.H.H.H.H.H.H.H.H.H.H.H.H.H.H.H.F.N.v.f.p.-.S @   }.}.}.}.}.}.}.}.",
"}.}.}.}.}.}.}.}.  @ S ;.p.f.b.B.G.H.H.H.H.H.H.H.H.H.H.H.H.H.H.H.H.F.N.v.f.p.-.S @   }.}.}.}.}.}.}.}.",
"}.}.}.}.}.}.}.}.  @ S ;.p.f.b.B.G.H.H.H.H.H.H.H.H.H.H.H.H.H.H.H.H.F.N.v.f.p.-.S @   }.}.}.}.}.}.}.}.",
"}.}.}.}.}.}.}.}.  @ S ;.p.f.b.B.G.H.H.H.H.H.H.H.H.H.H.H.H.H.H.H.H.F.N.v.f.p.-.S @   }.}.}.}.}.}.}.}.",
"}.}.}.}.}.}.}.}.  @ S ;.p.f.b.B.G.H.H.H.H.H.H.H.H.H.H.H.H.H.H.H.H.F.N.v.f.p.-.S @   }.}.}.}.}.}.}.}.",
"}.}.}.}.}.}.}.}.  @ S ;.p.f.b.B.G.H.H.H.H.H.H.H.H.H.H.H.H.H.H.H.H.F.N.v.f.p.-.S @   }.}.}.}.}.}.}.}.",
"}.}.}.}.}.}.}.}.  @ S ;.p.f.b.B.G.H.H.H.H.H.H.H.H.H.H.H.H.H.H.H.H.F.N.v.f.p.-.S @   }.}.}.}.}.}.}.}.",
"}.}.}.}.}.}.}.}.  @ S ;.p.f.b.B.G.H.H.H.H.H.H.H.H.H.H.H.H.H.H.H.H.F.N.v.f.p.-.S @   }.}.}.}.}.}.}.}.",
"}.}.}.}.}.}.}.}.  @ S ;.p.f.b.B.G.H.H.H.H.H.H.H.H.H.H.H.H.H.H.H.H.F.N.v.f.p.-.S @   }.}.}.}.}.}.}.}.",
"}.}.}.}.}.}.}.}.  @ S ;.p.f.b.B.G.H.H.H.H.H.H.H.H.H.H.H.H.H.H.H.H.F.N.v.f.p.-.S @   }.}.}.}.}.}.}.}.",
"}.}.}.}.}.}.}.}.  @ S ;.p.f.b.B.G.H.H.H.H.H.H.H.H.H.H.H.H.H.H.H.H.F.N.v.f.p.-.S @   }.}.}.}.}.}.}.}.",
"}.}.}.}.}.}.}.}.  @ S ;.p.f.b.B.G.H.H.H.H.H.H.H.H.H.H.H.H.H.H.H.H.F.N.v.f.p.-.S @   }.}.}.}.}.}.}.}.",
"}.}.}.}.}.}.}.}.  @ S ;.i.d.j.l.x.M.D.H.H.H.H.H.H.H.H.H.H.H.H.D.M.x.l.j.d.i.-.S @   }.}.}.}.}.}.}.}.",
"}.}.}.}.}.}.}.}.  @ S ;.>.<.6.7.9.k.A.H.H.H.H.H.H.H.H.H.H.H.H.A.k.9.7.6.<.>.-.S @   }.}.}.}.}.}.}.}.",
"}.}.}.}.}.}.}.}.  @ A =.:.%.3.3.3.8.z.S.S.S.S.S.S.S.S.S.S.S.S.z.8.3.3.3.%.:.=.A @   }.}.}.}.}.}.}.}.",
"}.}.}.}.}.}.}.}.  O D #.$._ W W W ' 0.u.u.u.u.u.u.u.u.u.u.u.u.0.' W W W _ $.#.D O   }.}.}.}.}.}.}.}.",
"}.}.}.}.}.}.}.}.  # b X.` C w w w T ..5.5.5.5.5.5.5.5.5.5.5.5...T w w w C ` X.b #   }.}.}.}.}.}.}.}.",
"}.}.}.}.}.}.}.}.  o l ! E a 0 0 0 B Q ^ ^ ^ ^ ^ ^ ^ ^ ^ ^ ^ ^ Q B 0 0 0 a E ! l o   }.}.}.}.}.}.}.}.",
"}.}.}.}.}.}.}.}.  . 3 u p r 0 0 0 t p N N N N N N N N N N N N p t 0 0 0 r p u 3 .   }.}.}.}.}.}.}.}.",
"}.}.}.}.}.}.}.}.  . > 7 0 0 0 0 0 0 0 0 0 0 0 0 0 0 0 0 0 0 0 0 0 0 0 0 0 0 8 > .   }.}.}.}.}.}.}.}.",
"}.}.}.}.}.}.}.}.  . > 7 0 0 0 0 0 0 0 0 0 0 0 0 0 0 0 0 0 0 0 0 0 0 0 0 0 0 8 > .   }.}.}.}.}.}.}.}.",
"}.}.}.}.}.}.}.}.  . > 7 0 0 0 9 9 9 9 9 9 9 9 9 9 9 9 9 9 9 9 9 9 9 9 0 0 0 8 > .   }.}.}.}.}.}.}.}.",
"}.}.}.}.}.}.}.}.  . > 7 0 0 9 6 < , , , , , , , , , , , , , , , , < 6 9 0 0 8 > .   }.}.}.}.}.}.}.}.",
"}.}.}.}.}.}.}.}.  . > 7 0 0 7 , % + + + + + + + + + + + + + + + + % , 7 0 0 8 > .   }.}.}.}.}.}.}.}.",
"}.}.}.}.}.}.}.}.  . : 4 5 5 4 : .                                 . : 4 5 5 4 : .   }.}.}.}.}.}.}.}.",
"}.}.}.}.}.}.}.}.}.}.& * 1 1 * & }.}.}.}.}.}.}.}.}.}.}.}.}.}.}.}.}.}.& * 1 1 * & }.}.}.}.}.}.}.}.}.}."
};
