/* XPM */
static char *result[] = {
/* columns rows colors chars-per-pixel */
"50 50 151 2 ",
"   c #EBE27C",
".  c #5C4E92",
"X  c #5F5193",
"o  c #625494",
"O  c #6B5C97",
"+  c #72649D",
"@  c #7A6C9B",
"#  c #7D719D",
"$  c #7366A0",
"%  c #7568A1",
"&  c #796DA3",
"*  c #766DAA",
"=  c #7D71A5",
"-  c #7F75AA",
";  c #896F9A",
":  c #82779E",
">  c #89739C",
",  c #847A9E",
"<  c #8A7C9F",
"1  c #8576A3",
"2  c #857AA2",
"3  c #8A7EA1",
"4  c #8376A9",
"5  c #837AAC",
"6  c #978E9C",
"7  c #A89F94",
"8  c #AAA194",
"9  c #B5AC92",
"0  c #B6AF9D",
"q  c #BDB592",
"w  c #8C82A1",
"e  c #8D84AD",
"r  c #9087A0",
"t  c #9885A6",
"y  c #9088A5",
"u  c #9B88A7",
"i  c #938BAB",
"p  c #9E96A6",
"a  c #9E96AB",
"s  c #8F84B0",
"d  c #9286B2",
"f  c #988DB5",
"g  c #9C95B1",
"h  c #9E93B8",
"j  c #B08DA2",
"k  c #A39BA1",
"l  c #A293AB",
"z  c #A69DAB",
"x  c #B192A4",
"c  c #B39BA7",
"v  c #B39EA8",
"b  c #A69EB3",
"n  c #A297BB",
"m  c #A49ABA",
"M  c #ACA4AC",
"N  c #AFA8AD",
"B  c #B6A7AD",
"V  c #B3ACAD",
"C  c #B7B0AE",
"Z  c #BAB4AF",
"A  c #AAA4B3",
"S  c #AEA8B4",
"D  c #B7A2B0",
"F  c #B1A9B9",
"G  c #B5B0B5",
"H  c #BAB5B5",
"J  c #BFB9B3",
"K  c #BCB4BD",
"L  c #C6BD88",
"P  c #D7A9A9",
"I  c #D8AEAB",
"U  c #C1BBA6",
"Y  c #C2BDAF",
"T  c #D9B2AC",
"R  c #C1ABB4",
"E  c #C2BDB2",
"W  c #CCB4B8",
"Q  c #CEBCB8",
"!  c #DBBFB0",
"~  c #E8B5AC",
"^  c #E9BBAE",
"/  c #D7CF83",
"(  c #DDD584",
")  c #D0C995",
"_  c #DDD695",
"`  c #E4DF9C",
"'  c #E7E086",
"]  c #EBE382",
"[  c #EDE68E",
"{  c #E9E290",
"}  c #EEE99A",
"|  c #D3CEA8",
" . c #DFDAA7",
".. c #C7C2B3",
"X. c #CAC5B3",
"o. c #CECAB5",
"O. c #CDC8BB",
"+. c #DCC3B2",
"@. c #D0C3B9",
"#. c #D2CEBA",
"$. c #D4D1B7",
"%. c #DFD3B7",
"&. c #DDDAB2",
"*. c #D6D3BB",
"=. c #DAD7B9",
"-. c #DDDABA",
";. c #E3DEA1",
":. c #E0DCAE",
">. c #EAC3B1",
",. c #EDCEB4",
"<. c #E1C9BF",
"1. c #EED5B6",
"2. c #E1D4BD",
"3. c #E1DEBA",
"4. c #EFDBB9",
"5. c #EFEBA1",
"6. c #F0EDAD",
"7. c #E4E2BC",
"8. c #E9E7BE",
"9. c #EBE9BE",
"0. c #F1EEB1",
"q. c #F1E5BC",
"w. c #F1EBBE",
"e. c #F2F0B7",
"r. c #F2F0BD",
"t. c #A99FC0",
"y. c #ACA2C1",
"u. c #BDB4CB",
"i. c #C3BACF",
"p. c #CDC6CD",
"a. c #D3CEC3",
"s. c #D3CDC8",
"d. c #D9D4C1",
"f. c #DDD8C5",
"g. c #D8D1CD",
"h. c #CCC3D4",
"j. c #D5CDD9",
"k. c #DDD5DE",
"l. c #DFD8DB",
"z. c #E3DFC8",
"x. c #F3DAC5",
"c. c #E4DED5",
"v. c #E1DAD9",
"b. c #EEECC4",
"n. c #EAE6CC",
"m. c #EDEAC8",
"M. c #F3E3C3",
"N. c #F2EEC3",
"B. c #F3F2C0",
"V. c #E6E1D1",
"C. c None",
/* pixels */
"C.C.C.C.C.C.C.. . . . . . . . . . . C.C.C.C.C.C.C.C.C.C.C.C.C.C.. . . . . . . . . . . C.C.C.C.C.C.C.",
"C.C.C.C.C.C.C.. . . . . . . . . . . C.C.C.C.C.C.C.C.C.C.C.C.C.C.. . . . . . . . . . . C.C.C.C.C.C.C.",
"C.C.C.C.C.C.@ : < < w 3 w 3 3 w < : @ C.C.C.C.C.C.C.C.C.C.C.C.@ , < < w < w 3 w < < : @ C.C.C.C.C.C.",
"C.C.C.C.C.o , p V Z Z Z Z Z Z Z V p , o C.C.C.C.C.C.C.C.C.C.o , p V Z Z Z Z Z Z Z V p , o C.C.C.C.C.",
"C.C.C.C.. o w V =.8.8.9.9.9.9.9.=.V w o X C.C.C.C.C.C.C.C.. o w V =.8.9.8.9.9.8.8.=.V w o . C.C.C.C.",
"C.C.C.C.. o < B %.q.q.4.q.q.w.w.-.C w o . . C.C.C.C.C.C.. . o w Z 3.w.w.w.4.q.q.8.%.B < o . C.C.C.C.",
"C.C.C.C.. o > v ! ,.,.,.,.1.q.w.7.C w o . . . . . . . . . . o w V 3.w.q.1.,.1.,.,.! c > o . C.C.C.C.",
"C.C.C.C.. o > x I ^ ^ ^ ^ ,.4.w.7.C w X . . . . . . . . . X o w Z 3.q.4.,.^ ^ ^ ^ I j > o . C.C.C.C.",
"C.C.C.C.. X ; j P ~ ~ ~ ~ >.4.q.7.E l = & & & & & & & & & & = a E 7.M.4.>.~ ~ ~ ~ P j ; o . C.C.C.C.",
"C.C.C.C.. X ; j P ~ ~ ~ ~ >.1.w.8.a.K m h n n n n n n h h n m u.#.8.9.1.>.~ ~ ~ ~ P j ; o . C.C.C.C.",
"C.C.C.C.. X ; j P ~ ~ ~ ~ ,.4.w.b.n.g.h.h.h.i.h.h.h.h.h.h.h.p.g.z.b.w.4.,.~ ~ ~ ~ P j ; o . C.C.C.C.",
"C.C.C.C.. o > x T ^ >.^ ^ ,.4.w.b.n.v.k.k.k.k.k.k.k.k.k.k.k.k.c.n.N.w.4.,.^ >.^ ^ T j > o . C.C.C.C.",
"C.C.C.C.. o > B >.1.1.1.1.4.q.w.b.n.V.k.k.k.k.k.k.k.k.k.k.k.k.c.n.N.N.q.4.1.1.1.1.+.v < o . C.C.C.C.",
"C.C.C.C.. o w B %.9.q.w.q.w.w.r.b.m.c.k.k.k.k.k.k.k.k.k.k.k.l.c.n.N.B.w.w.q.q.w.w.%.B < X . C.C.C.C.",
"C.C.C.C.. o w C 7.r.B.B.r.B.B.B.b.n.V.k.k.k.k.k.k.k.k.k.k.k.l.c.n.N.B.B.r.B.B.B.r.3.Z w o X C.C.C.C.",
"C.C.C.C.. o w C 3.r.B.B.B.B.B.B.b.n.c.k.k.k.k.k.k.k.k.k.k.k.k.c.n.B.B.B.B.B.B.B.r.3.C w o X C.C.C.C.",
"C.C.C.C.X o w C 7.B.B.B.B.B.B.B.b.n.V.k.k.k.k.k.k.k.k.k.k.k.k.V.n.B.B.B.B.B.B.B.B.3.G w X X C.C.C.C.",
"C.C.C.. X o w C 3.B.B.B.B.B.B.B.B.m.V.l.l.l.l.l.l.l.l.l.l.l.l.V.n.b.B.B.B.B.B.B.B.3.Z w X X X C.C.C.",
"C.C.. . . X w C 3.r.B.B.B.B.B.B.B.b.n.V.V.V.V.V.V.V.V.V.V.V.V.n.b.B.B.B.B.B.B.B.r.3.C w X X . . C.C.",
". X . X X X w C 7.B.B.B.B.B.B.r.B.b.b.m.m.m.m.m.m.m.m.m.m.m.m.b.b.B.B.B.B.B.B.B.B.3.C w X . . . . . ",
". . . . . X w C 3.r.b.9.9.9.9.r.B.B.B.B.B.B.B.B.B.B.B.B.B.B.B.B.B.B.B.r.9.9.9.9.b.7.C w o . X . . . ",
". . . . X o w C 3.8.=.X.Z ..-.9.B.B.B.B.B.B.B.B.B.B.B.B.B.B.B.B.B.B.9.-.X.Z X.=.9.3.C w o . X X . . ",
"C.C.C.. . o w C &.7...M < M E 3.B.B.B.B.B.B.B.B.B.B.B.B.B.B.B.B.B.r.3...M w M Y 3.3.C w o . . C.C.C.",
"C.C.C.C.. o w C 7.=.N < o 3 V =.B.B.B.B.B.B.B.B.B.B.B.B.B.B.B.B.r.r.=.N < . < B =.3.C w o X C.C.C.C.",
"C.C.C.. . o w C 3.7...M 6 M ..7.B.B.B.B.B.B.B.B.B.B.B.B.B.B.B.B.B.B.4...M w M ..3.3.C w o . . C.C.C.",
". . . . . o w C 3.9.-.o.J X.-.9.B.B.B.B.B.B.B.B.B.B.B.B.B.B.B.B.B.B.8.-.o.E o.-.b.3.C w o . . . . . ",
". . . . . o w C 3.w.B.w.9.w.r.B.B.B.B.B.B.B.B.B.B.B.B.B.B.B.B.B.B.B.B.B.r.w.r.N.w.3.C w o . . . . . ",
". . . . . o w V 2.N.N.N.N.N.B.B.B.B.B.B.B.B.B.B.B.B.B.B.B.B.B.B.B.B.B.r.N.N.N.N.N.2.C w o . . . . . ",
"C.C.. . . o 3 D <.M.M.M.M.M.N.B.B.B.B.B.B.B.B.B.B.B.B.B.B.B.B.B.B.B.N.N.M.M.M.x.M.2.B 3 o . . . C.C.",
"C.C.C.. . o 3 D <.x.x.x.x.M.M.B.B.B.B.B.B.r.B.B.B.B.B.B.B.B.B.B.B.r.B.M.x.x.x.x.x.<.D 3 o . . C.C.C.",
"C.C.C.C.. o 1 x R W W W W Q O.o.#.#.*.*.*.#.#.#.#.#.#.#.#.#.*.*.#.#.#.@.Q W W W W R l 1 o . C.C.C.C.",
"C.C.C.C.C.C.1 3 t u u u u a a A A A A A A A A A A A A A A A A A A A b b l u u u u t < ; C.C.C.C.C.C.",
"C.C.C.C.C.C.C.O O O O O O + & 4 5 5 - e - - - 5 - 5 5 5 5 5 5 5 5 5 - * $ O O O O O O C.C.C.C.C.C.C.",
"C.C.C.C.C.C.C.& & & & @ # = & & * * * * * e w r y i i e 5 - * * * * * * # # # & & & & C.C.C.C.C.C.C.",
"C.C.C.C.C.o 4 5 h n b M M a e - * * * * 2 6 8 8 0 C H A g 5 * * * * - e a N A A b h e - o C.C.C.C.C.",
"C.C.C.C.. o 4 t.u.h.s.d.-.J b e * * * * r 8 q   _  .3.O.S i * * * * 5 b J -.d.s.p.u.h - o X C.C.C.C.",
"C.C.C.C.. o 4 t.h.c.V.m.r.*.H g s s e e 7 q /   [ } 6.&.Y b e e e e g H *.B.m.V.v.h.t.5 X . C.C.C.C.",
"C.C.C.C.. o 4 t.h.l.V.m.B.7.#.J G G G G J ) (   ] [ } ;.| Y G G G H J #.7.B.m.V.v.h.t.5 o X C.C.C.C.",
"C.C.C.C.. o 5 t.h.V.V.m.r.9.b.-.-.-.-.-. .` '     ] ] { ` :.-.-.-.-.7.7.b.B.m.V.v.h.t.4 o . C.C.C.C.",
"C.C.C.C.. o 5 n u.h.s.d.3.7.9.b.B.B.B.r.e.} [ ] ] ] ] [ 5.0.B.B.B.B.b.9.7.-.d.a.h.i.n 5 o . C.C.C.C.",
"C.C.C.C.C.o = s h m A M M J $.8.B.B.B.B.r.6.5.} } } } 5.6.0.B.B.B.B.8.$.E M M b m n d & o C.C.C.C.C.",
"C.C.C.C.C.C.C.% & & = & # p J &.B.B.B.B.r.r.e.6.6.0.0.0.r.r.B.B.B.r.-.J p # # & & @ % C.C.C.C.C.C.C.",
"C.C.C.C.C.C.C.. X . . . X 2 N =.N.N.N.N.N.8.8.7.7.7.7.7.8.N.N.N.B.N.=.N < . . . . . . C.C.C.C.C.C.C.",
"C.C.C.C.C.C.C.C.. . . . . 2 A a.n.n.n.n.f.O.J V V V V J O.f.n.n.n.n.a.A 2 . . . . . C.C.C.C.C.C.C.C.",
"C.C.C.C.C.C.C.C.C.C.. . . 4 b p.v.c.c.c.p.F i , , , , i F p.c.c.v.c.p.A 4 . . . C.C.C.C.C.C.C.C.C.C.",
"C.C.C.C.C.C.C.C.C.C.C.. . = n i.j.j.j.j.u.f % . X . . % f u.j.j.j.j.i.n 4 . . C.C.C.C.C.C.C.C.C.C.C.",
"C.C.C.C.C.C.C.C.C.C.C.C.. & d n t.y.t.F h e $ . . X . + 5 n y.y.y.t.n d & . C.C.C.C.C.C.C.C.C.C.C.C.",
"C.C.C.C.C.C.C.C.C.C.C.C.C.C.= 4 4 4 4 4 = & C.C.C.C.C.C.& - 4 4 5 4 4 = C.C.C.C.C.C.C.C.C.C.C.C.C.C.",
"C.C.C.C.C.C.C.C.C.C.C.C.C.C.. . . . . . . C.C.C.C.C.C.C.C.. . . . . . . C.C.C.C.C.C.C.C.C.C.C.C.C.C.",
"C.C.C.C.C.C.C.C.C.C.C.C.C.C.. . . . . . . C.C.C.C.C.C.C.C.. . . . . . . C.C.C.C.C.C.C.C.C.C.C.C.C.C."
};
