/* XPM */
static char *result[] = {
/* columns rows colors chars-per-pixel */
"50 50 127 2 ",
"   c #C6BB7F",
".  c #D0C67D",
"X  c #D3CA7D",
"o  c #EAE178",
"O  c #5C4E92",
"+  c #5E5193",
"@  c #625594",
"#  c #665996",
"$  c #6A5D96",
"%  c #6E608F",
"&  c #76698D",
"*  c #796C8D",
"=  c #6E6197",
"-  c #6F629D",
";  c #786B92",
":  c #72659C",
">  c #75699A",
",  c #7A6F9B",
"<  c #7D7091",
"1  c #7D729C",
"2  c #756AA3",
"3  c #7A6EA3",
"4  c #766DAA",
"5  c #7F76A5",
"6  c #7D74AA",
"7  c #837897",
"8  c #81769D",
"9  c #857A9E",
"0  c #8176A7",
"q  c #897FA1",
"w  c #8077A8",
"e  c #857BAC",
"r  c #8A7EAD",
"t  c #928688",
"y  c #9D928B",
"u  c #8E8497",
"i  c #8A809D",
"p  c #A19685",
"a  c #A59A85",
"s  c #A89D87",
"d  c #A69C92",
"f  c #ACA28B",
"g  c #B0A78E",
"h  c #8C83A1",
"j  c #8A81AD",
"k  c #9087A3",
"l  c #948BA3",
"z  c #958EAF",
"x  c #9C94A6",
"c  c #9F98AF",
"v  c #968BB5",
"b  c #9A8FB7",
"n  c #9D97B1",
"m  c #9D92B9",
"M  c #A199A7",
"N  c #A59DA8",
"B  c #AD9DB6",
"V  c #A096BA",
"C  c #ABA4AA",
"Z  c #AFA9AB",
"A  c #B4ACAC",
"S  c #B7B0AE",
"D  c #BBB5AF",
"F  c #ACA5B4",
"G  c #A9A1B8",
"H  c #B1ABB4",
"J  c #B0A6BE",
"K  c #B6B1B5",
"L  c #BBB6B2",
"P  c #BEB8B1",
"I  c #C3B984",
"U  c #C1B8AF",
"Y  c #C2BDB1",
"T  c #D0BFB1",
"R  c #D4BEBE",
"E  c #E8B5AC",
"W  c #E9B9AD",
"Q  c #D6CD80",
"!  c #C7C2B2",
"~  c #C9C4B3",
"^  c #CECAB5",
"/  c #C4C0B8",
"(  c #C9C4BC",
")  c #CDC8BA",
"_  c #D3CCB6",
"`  c #D4C3BD",
"'  c #D3CCBA",
"]  c #D5D1B7",
"[  c #D5D1BA",
"{  c #D8D6BB",
"}  c #DCD9B9",
"|  c #E0C6B2",
" . c #EAC3B1",
".. c #ECCCB3",
"X. c #EDD5B7",
"o. c #E1DEBB",
"O. c #EFDCB9",
"+. c #F0DFBA",
"@. c #E4E2BB",
"#. c #E9E6BD",
"$. c #ECEBBE",
"%. c #F1E4BB",
"&. c #F1ECBE",
"*. c #F1F0BF",
"=. c #B4AAC6",
"-. c #BBB1CA",
";. c #C3BACF",
":. c #CAC3C5",
">. c #CAC2CF",
",. c #D1CBC8",
"<. c #D9D5C2",
"1. c #DDD8C3",
"2. c #DFDACC",
"3. c #D4CCD4",
"4. c #DCD4DD",
"5. c #E0DDC0",
"6. c #F3DAC5",
"7. c #E4DED5",
"8. c #E0D8DA",
"9. c #EAE7C5",
"0. c #EEEBC7",
"q. c #EBE7CB",
"w. c #F3E3C3",
"e. c #F3ECC1",
"r. c #F3F2C0",
"t. c #E7E2D1",
"y. c None",
/* pixels */
"y.y.y.y.y.y.y.y.y.y.y.y.y.y.y.y.y.y.y.O O O O O O O + O y.y.y.y.y.y.y.y.y.y.y.y.y.y.y.y.y.y.y.y.y.y.",
"y.y.y.y.y.y.y.y.y.y.y.y.y.y.y.y.y.y.y.@ @ @ @ @ @ @ @ + y.y.y.y.y.y.y.y.y.y.y.y.y.y.y.y.y.y.y.y.y.y.",
"y.y.y.y.y.y.y.y.y.y.y.y.y.y.y.y.y.y.8 h l k l l k l u h 1 y.y.y.y.y.y.y.y.y.y.y.y.y.y.y.y.y.y.y.y.y.",
"y.y.y.y.y.y.y.y.y.y.y.y.y.y.y.y.O = k A Y Y U Y ! P ! C h # O y.y.y.y.y.y.y.y.y.y.y.y.y.y.y.y.y.y.y.",
"y.y.y.y.y.y.y.y.y.y.y.y.y.y.y.y.O = x | &.&.*.*.r.r.*.! x $ O y.y.y.y.y.y.y.y.y.y.y.y.y.y.y.y.y.y.y.",
"y.y.y.y.y.y.y.y.y.y.y.y.y.y.y.1 9 l A _ %.O.+.%.%.&.r.! l # O O y.y.y.y.y.y.y.y.y.y.y.y.y.y.y.y.y.y.",
"y.y.y.y.y.y.y.y.y.y.y.y.y.O > l A U T _ ........O.%.*.! l # O O O O y.y.y.y.y.y.y.y.y.y.y.y.y.y.y.y.",
"y.y.y.y.y.y.y.y.y.y.y.y.O O > N _ #.X. .E W W W ..+.*.! x # O O O O y.y.y.y.y.y.y.y.y.y.y.y.y.y.y.y.",
"y.y.y.y.y.y.y.y.y.y.y.y.O O > N ] &.X. .E E E E ..+.r._ A h 9 9 9 1 1 y.y.y.y.y.y.y.y.y.y.y.y.y.y.y.",
"y.y.y.y.y.y.y.y.y.y.y.y.O O > N ] &.X. .E E E E ..O.r.o.~ S A A A C l = y.y.y.y.y.y.y.y.y.y.y.y.y.y.",
"y.y.y.y.y.y.y.y.y.y.y.y.O O > N ] &.X. .E E E E ..O.r.$.#.@.@.@.@.^ M > O y.y.y.y.y.y.y.y.y.y.y.y.y.",
"y.y.y.y.y.y.y.y.y.y.y.y.O O > N ] &.+... . . . ...%.r.r.r.r.r.r.*.] N > O O y.y.y.y.y.y.y.y.y.y.y.y.",
"y.y.y.y.y.y.y.y.y.y.y.y.O O > N ] *.%.+.X.X.X.X.O.&.r.r.r.r.r.r.r.] N > O O y.y.y.y.y.y.y.y.y.y.y.y.",
"y.y.y.y.y.y.y.y.y.y.y.y.O O > N ] *.&.&.&.&.%.&.&.*.r.r.r.r.r.r.r.] N > O O y.y.y.y.y.y.y.y.y.y.y.y.",
"y.y.y.y.y.y.y.y.y.y.y.y.O O > N ] r.r.r.r.r.r.r.r.r.r.r.r.r.r.r.r.] N > O O y.y.y.y.y.y.y.y.y.y.y.y.",
"y.y.y.y.y.y.y.y.y.y.y.y.O O > N ] r.r.r.r.r.r.r.r.r.r.r.r.r.r.r.r.] N > O O y.y.y.y.y.y.y.y.y.y.y.y.",
"y.y.y.y.y.y.y.y.y.y.y.y.O O > N ] r.r.r.r.r.r.r.r.r.r.r.r.r.r.r.*.] C > + O y.y.y.y.y.y.y.y.y.y.y.y.",
"y.y.y.y.y.y.y.y.y.y.y.y.O O > N ] r.r.r.r.*.r.r.r.r.r.r.r.r.r.r.*.] N > O O y.y.y.y.y.y.y.y.y.y.y.y.",
"y.y.y.y.y.y.y.y.y.y.y.O O O > N ] r.r.r.r.r.r.r.r.r.r.r.*.r.r.r.*.] N > O O O y.y.y.y.y.y.y.y.y.y.y.",
"y.y.y.y.y.y.y.y.y.O O O O O > N ] r.r.r.r.r.r.r.r.r.r.r.r.r.r.r.*.] N > O O O O O y.y.y.y.y.y.y.y.y.",
"y.y.y.y.y.y.y.y.y.O O O O O > N ] r.r.r.r.r.r.r.r.r.*.*.*.$.$.$.*.{ C 1 # + + O O y.y.y.y.y.y.y.y.y.",
"y.y.y.y.y.y.y.y.y.O O O O O > N ] r.r.r.r.r.r.r.r.r.*.o.] U ! } $.o.! N i 1 # O O y.y.y.y.y.y.y.y.y.",
"y.y.y.y.y.y.y.y.y.y.y.y.O O > N ] r.r.r.r.r.r.r.r.r.*.] A h M ! @.#.} ^ D l : + O y.y.y.y.y.y.y.y.y.",
"y.y.y.y.y.y.y.y.y.y.y.y.O O > N ] r.r.r.r.r.r.r.r.r.*.! x $ 9 A @.r.r.r.} C , O O y.y.y.y.y.y.y.y.y.",
"y.y.y.y.y.y.y.y.y.y.y.y.O O > N ] r.r.r.r.r.r.r.r.r.r.] S l C ! #.*.r.r.} Z 1 + O y.y.y.y.y.y.y.y.y.",
"y.y.y.y.y.y.y.y.y.O O O O O > N ] r.r.r.r.r.r.r.r.r.*.@.] ! ^ } $.r.r.r.} Z , O O y.y.y.y.y.y.y.y.y.",
"y.y.y.y.y.y.y.y.y.O O O O O > N ] r.r.r.r.r.r.r.r.r.r.r.*.&.&.*.r.r.r.r.} Z , O O y.y.y.y.y.y.y.y.y.",
"y.y.y.y.y.y.y.y.y.O O O O O > N ] r.r.r.r.r.e.e.e.e.e.e.r.r.r.r.r.r.r.r.} C , + O y.y.y.y.y.y.y.y.y.",
"y.y.y.y.y.y.y.y.y.y.y.O O O > N ] r.r.r.r.e.w.w.w.w.w.w.e.r.r.r.r.r.r.r.} C 1 O O y.y.y.y.y.y.y.y.y.",
"y.y.y.y.y.y.y.y.y.y.y.y.O O > N ] r.r.r.r.e.w.6.6.6.6.w.e.e.r.r.r.r.r.r.} C 1 O O y.y.y.y.y.y.y.y.y.",
"y.y.y.y.y.y.y.y.y.y.y.y.y.O > x L _ _ [ ' ` ` R R R ;.| ' [ [ [ [ ) ' ^ P M 1 O O y.y.y.y.y.y.y.y.y.",
"y.y.y.y.y.y.y.y.y.y.y.y.y.y.> 9 l M N F H F B B B B B G F F F F F F C x x h > y.y.y.y.y.y.y.y.y.y.y.",
"y.y.y.y.y.y.y.y.y.y.y.y.y.y.y.= = : , 5 e e e e e e e e e e e e e w 3 > = = y.y.y.y.y.y.y.y.y.y.y.y.",
"y.y.y.y.y.y.y.y.y.y.y.y.y.y.y.: : 6 5 j j e 6 4 4 4 4 4 4 4 4 4 4 4 , ; * * y.y.y.y.y.y.y.y.y.y.y.y.",
"y.y.y.y.y.y.y.y.y.y.y.y.y.y.: r v V G H K n j 4 4 4 4 4 4 4 4 4 4 5 u y f a y.y.y.y.y.y.y.y.y.y.y.y.",
"y.y.y.y.y.y.y.y.y.y.y.y.y.O : v =.>.,.1.{ K v 4 4 4 4 4 4 4 4 4 4 q d I X X y.y.y.y.y.y.y.y.y.y.y.y.",
"y.y.y.y.y.y.y.y.y.y.y.y.O O 2 b ;.8.t.0.$.( F j j j j j j j e 6 2 i g X o o y.y.y.y.y.y.y.y.y.y.y.y.",
"y.y.y.y.y.y.y.y.y.y.y.y.O O : b ;.8.t.0.$.{ / F H H H H H H n h 2 1 f X o o y.y.y.y.y.y.y.y.y.y.y.y.",
"y.y.y.y.y.y.y.y.y.y.y.y.O O 2 v ;.4.t.0.r.#.@.{ <.[ { { { { K z : < f X o o y.y.y.y.y.y.y.y.y.y.y.y.",
"y.y.y.y.y.y.y.y.y.y.y.y.y.O : v -.3.2.9.r.r.r.r.r.r.r.r.r.r.^ x = & p . o y.y.y.y.y.y.y.y.y.y.y.y.y.",
"y.y.y.y.y.y.y.y.y.y.y.y.y.y.- r m J ( 5.r.r.r.r.r.r.r.r.r.r._ x = % t   y.y.y.y.y.y.y.y.y.y.y.y.y.y.",
"y.y.y.y.y.y.y.y.y.y.y.y.y.y.y.2 3 r H ] r.r.r.r.r.r.r.r.r.r.^ x = # * y.y.y.y.y.y.y.y.y.y.y.y.y.y.y.",
"y.y.y.y.y.y.y.y.y.y.y.y.y.y.y.y.O : x ~ $.9.&.r.r.e.e.r.$.$.! x = + y.y.y.y.y.y.y.y.y.y.y.y.y.y.y.y.",
"y.y.y.y.y.y.y.y.y.y.y.y.y.y.y.y.O $ k C U ) 1.q.q.q.q.1.) P C k = + y.y.y.y.y.y.y.y.y.y.y.y.y.y.y.y.",
"y.y.y.y.y.y.y.y.y.y.y.y.y.y.y.y.y.y.1 q l G :.7.7.7.7.:.G l q 5 y.y.y.y.y.y.y.y.y.y.y.y.y.y.y.y.y.y.",
"y.y.y.y.y.y.y.y.y.y.y.y.y.y.y.y.y.y.y.O # j =.4.4.4.4.=.r # O y.y.y.y.y.y.y.y.y.y.y.y.y.y.y.y.y.y.y.",
"y.y.y.y.y.y.y.y.y.y.y.y.y.y.y.y.y.y.y.O # e V =.=.=.=.m e # O y.y.y.y.y.y.y.y.y.y.y.y.y.y.y.y.y.y.y.",
"y.y.y.y.y.y.y.y.y.y.y.y.y.y.y.y.y.y.y.y.y.3 w r r r j e 3 y.y.y.y.y.y.y.y.y.y.y.y.y.y.y.y.y.y.y.y.y.",
"y.y.y.y.y.y.y.y.y.y.y.y.y.y.y.y.y.y.y.y.y.y.@ @ @ @ + @ y.y.y.y.y.y.y.y.y.y.y.y.y.y.y.y.y.y.y.y.y.y.",
"y.y.y.y.y.y.y.y.y.y.y.y.y.y.y.y.y.y.y.y.y.y.O O O O O O y.y.y.y.y.y.y.y.y.y.y.y.y.y.y.y.y.y.y.y.y.y."
};
