/* XPM */
static char *result[] = {
/* columns rows colors chars-per-pixel */
"50 50 204 2 ",
"   c #5C4E92",
".  c #5D4F92",
"X  c #605295",
"o  c #6A5E96",
"O  c #6B5E97",
"+  c #665A9B",
"@  c #6B5F99",
"#  c #685C9D",
"$  c #6E639F",
"%  c #70649B",
"&  c #776C9A",
"*  c #766A9E",
"=  c #786C9A",
"-  c #7A6F9B",
";  c #7A6F9C",
":  c #796D9E",
">  c #7B6F9F",
",  c #7C719C",
"<  c #7D719D",
"1  c #7D729C",
"2  c #7E739C",
"3  c #7C719F",
"4  c #7D729F",
"5  c #6C61A1",
"6  c #6D62A2",
"7  c #7366A0",
"8  c #7066A5",
"9  c #7568A1",
"0  c #7469A1",
"q  c #7669A1",
"w  c #776BA0",
"e  c #776DA2",
"r  c #7268A5",
"t  c #7268A6",
"y  c #786BA3",
"u  c #7A6DA1",
"i  c #786CA3",
"p  c #796FA3",
"a  c #7A6EA4",
"s  c #7B6FA4",
"d  c #746AA8",
"f  c #746BA8",
"g  c #756CA9",
"h  c #776EA8",
"j  c #766CAA",
"k  c #766DAA",
"l  c #7A70A3",
"z  c #7C70A5",
"x  c #7F76A9",
"c  c #7F77AA",
"v  c #80759D",
"b  c #83789E",
"n  c #83799E",
"m  c #847A9E",
"M  c #877D9F",
"N  c #8074A7",
"B  c #8278A2",
"V  c #897EA0",
"C  c #897FA0",
"Z  c #8275A8",
"A  c #8376A9",
"S  c #8377A9",
"D  c #8077AA",
"F  c #8579AA",
"G  c #827AAC",
"H  c #8B81A0",
"J  c #8C82A1",
"K  c #8F85A1",
"L  c #8F85A2",
"P  c #8880AD",
"I  c #8981AD",
"U  c #9087A4",
"Y  c #958CA3",
"T  c #968DA6",
"R  c #9189AA",
"E  c #928AAA",
"W  c #948AA9",
"Q  c #9991A5",
"!  c #9A91A5",
"~  c #9B93A5",
"^  c #9E97A8",
"/  c #9E95AE",
"(  c #8F83B0",
")  c #9186B1",
"_  c #9589B3",
"`  c #9E97B1",
"'  c #9D92B8",
"]  c #A199A7",
"[  c #A29BAB",
"{  c #A59EA8",
"}  c #A49CAB",
"|  c #A39CAD",
" . c #A59DB0",
".. c #A298B5",
"X. c #A59BB7",
"o. c #A095BA",
"O. c #A297BB",
"+. c #A398BC",
"@. c #A69BBE",
"#. c #A69CBE",
"$. c #A89DBE",
"%. c #A8A0A9",
"&. c #A9A1A9",
"*. c #A9A1AB",
"=. c #AAA3AA",
"-. c #ABA4AA",
";. c #AEA7AB",
":. c #ACA5AD",
">. c #B1AAAC",
",. c #B4ADAD",
"<. c #B4AEAD",
"1. c #B6B0AE",
"2. c #B7B1AE",
"3. c #B8B2AE",
"4. c #BAB4AF",
"5. c #BCB6AF",
"6. c #A8A2B1",
"7. c #A8A0B2",
"8. c #A8A2B2",
"9. c #AAA4B2",
"0. c #AAA5B3",
"q. c #B4ACBC",
"w. c #BBB4B3",
"e. c #BEBAB7",
"r. c #BFBBB7",
"t. c #C2BDB1",
"y. c #C3BDB6",
"u. c #C7C3B3",
"i. c #C9C5B6",
"p. c #CBC7B7",
"a. c #CCC7B4",
"s. c #CDC9B5",
"d. c #CEC9B5",
"f. c #CECAB5",
"g. c #CFCCB7",
"h. c #CEC8BE",
"j. c #D1CEB6",
"k. c #D1CEB9",
"l. c #D2CFBA",
"z. c #D5D1B7",
"x. c #D6D3B7",
"c. c #D3D0BA",
"v. c #D8D4B8",
"b. c #D9D6B8",
"n. c #D8D4BB",
"m. c #DCD9B9",
"M. c #DDDAB9",
"N. c #DFDCBA",
"B. c #DCD8BC",
"V. c #DEDCBC",
"C. c #E0DEBA",
"Z. c #E1DFBC",
"A. c #E0DEBD",
"S. c #E2E0BB",
"D. c #E3E0BB",
"F. c #E4E1BB",
"G. c #E4E2BB",
"H. c #E7E5BC",
"J. c #E6E4BE",
"K. c #E7E5BF",
"L. c #E7E6BE",
"P. c #E9E7BD",
"I. c #E8E5BE",
"U. c #EAE8BD",
"Y. c #EBE9BE",
"T. c #EEEDBF",
"R. c #EFEEBF",
"E. c #ACA2C1",
"W. c #AEA3C2",
"Q. c #BCB4C0",
"!. c #C2B9CE",
"~. c #C6BDD0",
"^. c #CCC4CB",
"/. c #D2CCC3",
"(. c #D4CFC0",
"). c #D0C9CD",
"_. c #D4CDCF",
"`. c #D6D0C5",
"'. c #CBC2D3",
"]. c #CBC2D4",
"[. c #D5CDD9",
"{. c #D6CEDA",
"}. c #DAD4D1",
"|. c #E1DCC9",
" X c #E3DDD6",
".X c #E1DAD9",
"XX c #ECEAC0",
"oX c #EDEBC3",
"OX c #EEEBC7",
"+X c #EFEDC5",
"@X c #E5E1CA",
"#X c #EBE7CB",
"$X c #EAE7CC",
"%X c #EAE6CD",
"&X c #E8E4CF",
"*X c #F0EEC2",
"=X c #F1EFC3",
"-X c #F0EEC4",
";X c #F0EFC4",
":X c #F2F1C1",
">X c #F3F2C0",
",X c #F1F0C2",
"<X c #E5E0D3",
"1X c None",
/* pixels */
"1X1X1X1X1X1X1X1X1X                    1X1X1X1X1X1X1X1X1X1X1X1X                    1X1X1X1X1X1X1X1X1X",
"1X1X1X1X1X1X1X1X1X                    1X1X1X1X1X1X1X1X1X1X1X1X                    1X1X1X1X1X1X1X1X1X",
"1X1X1X1X1X1X1X1X= b V C C C C C C M v 1X1X1X1X1X1X1X1X1X1X1X1Xv M C C C C C C V b = 1X1X1X1X1X1X1X1X",
"1X1X1X1X1X1X1X. m ] 1.4.4.4.4.4.4.>.Q -   1X1X1X1X1X1X1X1X  - Q >.4.4.4.4.4.4.1.] m . 1X1X1X1X1X1X1X",
"1X1X1X1X1X1X  . H 3.D.U.U.U.U.U.U.x.-.2     1X1X1X1X1X1X    2 -.x.U.U.U.U.U.U.D.3.H .   1X1X1X1X1X1X",
"1X1X1X1X1X1X  . J 5.Y.>X>X>X>X>X>XM.;.2     1X1X1X1X1X1X    2 ;.M.>X>X>X>X>X>XY.5.J .   1X1X1X1X1X1X",
"1X1X1X1X1X1X  . J 5.Y.>X>X>X>X>X>XM.;.2                     2 ;.M.>X>X>X>X>X>XY.5.J .   1X1X1X1X1X1X",
"1X1X1X1X1X1X  . J 5.Y.>X>X>X>X>X>XM.;.2                     2 ;.M.>X>X>X>X>X>XY.5.J .   1X1X1X1X1X1X",
"1X1X1X1X1X1X  . J 5.Y.>X>X>X>X>X>XZ.w.W i i i i i i i i i i W w.Z.>X>X>X>X>X>XY.5.J .   1X1X1X1X1X1X",
"1X1X1X1X1X1X  . J 5.Y.>X>X>X>X>X>XK.h.q.O.O.O.O.O.O.O.O.O.O.q.h.K.>X>X>X>X>X>XY.5.J .   1X1X1X1X1X1X",
"1X1X1X1X1X1X  . J 5.Y.>X>X>X>X>X>XoX|._.'.'.'.'.'.'.'.'.'.'._.|.oX>X>X>X>X>X>XY.5.J .   1X1X1X1X1X1X",
"1X1X1X1X1X1X  . J 5.Y.>X>X>X>X>X>X;X#X<X.X.X.X.X.X.X.X.X.X.X<X#X;X>X>X>X>X>X>XY.5.J .   1X1X1X1X1X1X",
"1X1X1X1X1X1X  . J 5.Y.>X>X>X>X>X>X,XOX$X&X&X&X&X&X&X&X&X&X&X$XOX,X>X>X>X>X>X>XY.5.J .   1X1X1X1X1X1X",
"1X1X1X1X1X1X  . J 5.Y.>X>X>X>X>X>X:X,X-X+X+X+X+X+X+X+X+X+X+X-X,X:X>X>X>X>X>X>XY.5.J .   1X1X1X1X1X1X",
"1X1X1X1X1X1X  . J 5.Y.>X>X>X>X>X>X>X>X>X>X>X>X>X>X>X>X>X>X>X>X>X>X>X>X>X>X>X>XY.5.J .   1X1X1X1X1X1X",
"1X1X1X1X1X1X  . J 5.Y.>X>X>X>X>X>X>X>X>X>X>X>X>X>X>X>X>X>X>X>X>X>X>X>X>X>X>X>XY.5.J .   1X1X1X1X1X1X",
"1X1X1X1X1X1X  . J 5.Y.>X>X>X>X>X>X>X>X>X>X>X>X>X>X>X>X>X>X>X>X>X>X>X>X>X>X>X>XY.5.J .   1X1X1X1X1X1X",
"1X1X1X1X1X1X  . J 5.Y.>X>X>X>X>X>X>X>X>X>X>X>X>X>X>X>X>X>X>X>X>X>X>X>X>X>X>X>XY.5.J .   1X1X1X1X1X1X",
"1X1X1X1X1X    . J 5.Y.>X>X>X>X>X>X>X>X>X>X>X>X>X>X>X>X>X>X>X>X>X>X>X>X>X>X>X>XY.5.J .     1X1X1X1X1X",
"1X1X          . J 5.Y.>X>X>X>X>X>X>X>X>X>X>X>X>X>X>X>X>X>X>X>X>X>X>X>X>X>X>X>XY.5.J .           1X1X",
"1X1X          . J 5.Y.>X>X>X>X>X>X>X>X>X>X>X>X>X>X>X>X>X>X>X>X>X>X>X>X>X>X>X>XY.5.J .           1X1X",
"1X1X          . J 5.Y.>X>X>X>X>X>X>X>X>X>X>X>X>X>X>X>X>X>X>X>X>X>X>X>X>X>X>X>XY.5.J .           1X1X",
"1X1X1X1X1X    . J 5.Y.>X>X>X>X>X>X>X>X>X>X>X>X>X>X>X>X>X>X>X>X>X>X>X>X>X>X>X>XY.5.J .     1X1X1X1X1X",
"1X1X1X1X1X1X  . J 5.Y.>X>X>X>X>X>X>X>X>X>X>X>X>X>X>X>X>X>X>X>X>X>X>X>X>X>X>X>XY.5.J .   1X1X1X1X1X1X",
"1X1X1X1X1X    . J 5.Y.>X>X>X>X>X>X>X>X>X>X>X>X>X>X>X>X>X>X>X>X>X>X>X>X>X>X>X>XY.5.J .     1X1X1X1X1X",
"1X1X          . J 5.Y.>X>X>X>X>X>X>X>X>X>X>X>X>X>X>X>X>X>X>X>X>X>X>X>X>X>X>X>XY.5.J .           1X1X",
"1X1X          . J 5.Y.>X>X>X>X>X>X>X>X>X>X>X>X>X>X>X>X>X>X>X>X>X>X>X>X>X>X>X>XY.5.J .           1X1X",
"1X1X          . J 5.Y.>X>X>X>X>X>X>X>X>X>X>X>X>X>X>X>X>X>X>X>X>X>X>X>X>X>X>X>XY.5.J .           1X1X",
"1X1X1X1X1X    . J 5.Y.>X>X>X>X>X>X>X>X>X>X>X>X>X>X>X>X>X>X>X>X>X>X>X>X>X>X>X>XY.5.J .     1X1X1X1X1X",
"1X1X1X1X1X1X  . J 5.Y.>X>X>X>X>X>X>X>X>X>X>X>X>X>X>X>X>X>X>X>X>X>X>X>X>X>X>X>XY.5.J .   1X1X1X1X1X1X",
"1X1X1X1X1X1X  . M =.u.a.a.a.s.g.k.l.l.l.l.l.l.l.l.l.l.l.l.l.l.l.l.k.g.s.a.a.a.u.=.M .   1X1X1X1X1X1X",
"1X1X1X1X1X1X1X1X1 L ! ~ ~ ~ ^ | 6.0.0.0.0.0.0.0.0.0.0.0.0.0.0.0.0.6.| ^ ~ ~ ~ ! L 1 1X1X1X1X1X1X1X1X",
"1X1X1X1X1X1X1X1X1Xo O O O O % e x G G G G G G G G G G G G G G G G x e % O O O O o 1X1X1X1X1X1X1X1X1X",
"1X1X1X1X1X1X1X1X1X9 y u > < 3 p h k k k j d t 8 8 8 8 t d j k k k h p 3 < > u y 9 1X1X1X1X1X1X1X1X1X",
"1X1X1X1X1X1X1X. z ) o.X.7.:.[ R c k k k g 8 5 # # # # 5 8 g k k k c R [ :.7.X.o.) z . 1X1X1X1X1X1X1X",
"1X1X1X1X1X1X  . S @.~.).`.B.i.8.P k k k f 6 + X X X X + 6 f k k k P 8.i.B.`.).~.@.S .   1X1X1X1X1X1X",
"1X1X1X1X1X1X  . F W.{. X%X=XV.e.` I D h r 0 * & & & & * 0 r h D I ` e.V.=X%X X{.W.F .   1X1X1X1X1X1X",
"1X1X1X1X1X1X  . F W.{. X%X=XJ.c.r.9.E l $ B T %.%.%.%.T B $ l E 9.r.c.J.=X%X X{.W.F .   1X1X1X1X1X1X",
"1X1X1X1X1X1X  . F W.{. X%X=XT.L.A.p.} 4 @ U 1.v.v.v.v.1.U @ 4 } p.A.L.T.=X%X X{.W.F .   1X1X1X1X1X1X",
"1X1X1X1X1X1X  . S @.~.).`.B.S.P.R.C.2.K , { f.>X>X>X>Xf.{ , K 2.C.R.P.S.B.`.).~.@.S .   1X1X1X1X1X1X",
"1X1X1X1X1X1X1X. z ) o.X.7.:.5.j.H.H.d.<.&.t.m.>X>X>X>Xm.t.&.<.d.H.H.j.5.:.7.X.o.) z . 1X1X1X1X1X1X1X",
"1X1X1X1X1X1X1X1X1X9 y u > < Y 4.N.T.F.b.z.N.U.>X>X>X>XU.N.z.b.F.T.N.4.Y < > u y 9 1X1X1X1X1X1X1X1X1X",
"1X1X1X1X1X1X1X1X1X          ; *.n.=X=X=X*XXXI.G.G.G.G.I.XX*X=X=X=Xn.*.;           1X1X1X1X1X1X1X1X1X",
"1X1X1X1X1X1X1X1X1X1X        :  ./.%X%X%X@X(.y.,.,.,.,.y.(.@X%X%X%X/. .:         1X1X1X1X1X1X1X1X1X1X",
"1X1X1X1X1X1X1X1X1X1X1X1X    w ..^. X X X}.Q./ n n n n / Q.}. X X X^...w     1X1X1X1X1X1X1X1X1X1X1X1X",
"1X1X1X1X1X1X1X1X1X1X1X1X    q ' !.[.[.[.].#.N         N #.].[.[.[.!.' q     1X1X1X1X1X1X1X1X1X1X1X1X",
"1X1X1X1X1X1X1X1X1X1X1X1X1X  7 ( +.E.E.E.$._ s         s _ $.E.E.E.+.( 7   1X1X1X1X1X1X1X1X1X1X1X1X1X",
"1X1X1X1X1X1X1X1X1X1X1X1X1X1X1Xa N A A A Z z 1X1X1X1X1X1Xz Z A A A N a 1X1X1X1X1X1X1X1X1X1X1X1X1X1X1X",
"1X1X1X1X1X1X1X1X1X1X1X1X1X1X1X              1X1X1X1X1X1X              1X1X1X1X1X1X1X1X1X1X1X1X1X1X1X",
"1X1X1X1X1X1X1X1X1X1X1X1X1X1X1X              1X1X1X1X1X1X              1X1X1X1X1X1X1X1X1X1X1X1X1X1X1X"
};
