/* XPM */
static char *result[] = {
/* columns rows colors chars-per-pixel */
"50 50 127 2 ",
"   c #C6BB7F",
".  c #D0C67D",
"X  c #D3CA7D",
"o  c #EAE178",
"O  c #5C4E92",
"+  c #5E5193",
"@  c #625594",
"#  c #665996",
"$  c #6A5D96",
"%  c #6E608F",
"&  c #76698D",
"*  c #796C8D",
"=  c #6E6197",
"-  c #6F629D",
";  c #786B92",
":  c #71659C",
">  c #75699A",
",  c #7A6F9B",
"<  c #7D7091",
"1  c #7D729C",
"2  c #756AA3",
"3  c #7A6EA3",
"4  c #766DAA",
"5  c #7F76A5",
"6  c #7D74AA",
"7  c #837897",
"8  c #81769D",
"9  c #857A9E",
"0  c #8176A7",
"q  c #897FA1",
"w  c #8077A8",
"e  c #857BAC",
"r  c #8A7EAD",
"t  c #928688",
"y  c #9D928B",
"u  c #8E8497",
"i  c #8A809D",
"p  c #A19685",
"a  c #A59A85",
"s  c #A89D87",
"d  c #A69C92",
"f  c #ACA28B",
"g  c #B0A78E",
"h  c #8C83A1",
"j  c #8A81AD",
"k  c #9087A3",
"l  c #948BA3",
"z  c #958EAF",
"x  c #9C94A6",
"c  c #9F98AF",
"v  c #968BB5",
"b  c #9A8FB7",
"n  c #9D97B1",
"m  c #9D92B9",
"M  c #A199A7",
"N  c #A59DA8",
"B  c #AD9DB6",
"V  c #A096BA",
"C  c #ABA4AA",
"Z  c #AFA9AB",
"A  c #B4ACAC",
"S  c #B7B0AE",
"D  c #BBB5AF",
"F  c #ACA5B4",
"G  c #A9A1B8",
"H  c #B1ABB4",
"J  c #B0A6BE",
"K  c #B6B1B5",
"L  c #BBB6B2",
"P  c #BEB8B1",
"I  c #C3B984",
"U  c #C1B8AF",
"Y  c #C2BDB1",
"T  c #D0BFB1",
"R  c #D4BEBE",
"E  c #E8B5AC",
"W  c #E9B9AD",
"Q  c #D6CD80",
"!  c #C7C2B2",
"~  c #C9C4B3",
"^  c #CECAB5",
"/  c #C4C0B8",
"(  c #C9C4BC",
")  c #CDC8BA",
"_  c #D3CCB6",
"`  c #D4C3BD",
"'  c #D3CCBA",
"]  c #D5D1B7",
"[  c #D5D1BA",
"{  c #D8D6BB",
"}  c #DCD9B9",
"|  c #E0C6B2",
" . c #EAC3B1",
".. c #ECCCB3",
"X. c #EDD5B7",
"o. c #E1DEBB",
"O. c #EFDCB9",
"+. c #F0DFBA",
"@. c #E4E2BB",
"#. c #E9E6BD",
"$. c #ECEBBE",
"%. c #F1E4BB",
"&. c #F1ECBE",
"*. c #F1F0BF",
"=. c #B4AAC6",
"-. c #BBB1CA",
";. c #C3BACF",
":. c #CAC3C5",
">. c #CAC2CF",
",. c #D1CBC8",
"<. c #D9D5C2",
"1. c #DDD8C3",
"2. c #DFDACC",
"3. c #D4CCD4",
"4. c #DCD4DD",
"5. c #E0DDC0",
"6. c #F3DAC5",
"7. c #E4DED5",
"8. c #E0D8DA",
"9. c #EAE7C5",
"0. c #EEEBC7",
"q. c #EBE7CB",
"w. c #F3E3C3",
"e. c #F3ECC1",
"r. c #F3F2C0",
"t. c #E7E2D1",
"y. c None",
/* pixels */
"y.y.y.y.y.y.y.y.y.y.y.y.y.y.y.y.y.y.y.y.y.y.+ O O O O O O O O y.y.y.y.y.y.y.y.y.y.y.y.y.y.y.y.y.y.y.",
"y.y.y.y.y.y.y.y.y.y.y.y.y.y.y.y.y.y.y.y.y.y.@ @ @ @ @ @ @ @ @ y.y.y.y.y.y.y.y.y.y.y.y.y.y.y.y.y.y.y.",
"y.y.y.y.y.y.y.y.y.y.y.y.y.y.y.y.y.y.y.y.y.1 i k k k l k k k h 8 y.y.y.y.y.y.y.y.y.y.y.y.y.y.y.y.y.y.",
"y.y.y.y.y.y.y.y.y.y.y.y.y.y.y.y.y.y.y.O # h Z Y Y Y U ! Y ! Z l = O y.y.y.y.y.y.y.y.y.y.y.y.y.y.y.y.",
"y.y.y.y.y.y.y.y.y.y.y.y.y.y.y.y.y.y.y.O # l ~ &.*.*.*.*.*.*.^ x = + y.y.y.y.y.y.y.y.y.y.y.y.y.y.y.y.",
"y.y.y.y.y.y.y.y.y.y.y.y.y.y.y.y.y.y.O O # x ~ *.&.%.%.+.#.+._ A l 9 8 y.y.y.y.y.y.y.y.y.y.y.y.y.y.y.",
"y.y.y.y.y.y.y.y.y.y.y.y.y.y.y.y.O O O O # x ! *.%.O.X....... .T U Z l : O y.y.y.y.y.y.y.y.y.y.y.y.y.",
"y.y.y.y.y.y.y.y.y.y.y.y.y.y.y.y.O O O O # l ! *.+...W E E E  .X.#._ N > O O y.y.y.y.y.y.y.y.y.y.y.y.",
"y.y.y.y.y.y.y.y.y.y.y.y.y.y.y.1 1 q 8 9 i Z ] r.+...E E E E  .O.&.] N > + + y.y.y.y.y.y.y.y.y.y.y.y.",
"y.y.y.y.y.y.y.y.y.y.y.y.y.y.> k C A A A S ^ O.r.O...E E E E  .X.&.] N > O O y.y.y.y.y.y.y.y.y.y.y.y.",
"y.y.y.y.y.y.y.y.y.y.y.y.y.O > M ~ @.@.@.@.#.*.r.O. .E E E E  .X.&.] N > O O y.y.y.y.y.y.y.y.y.y.y.y.",
"y.y.y.y.y.y.y.y.y.y.y.y.O O > N ] r.r.r.r.r.r.r.+.X. . . . ...+.&.] N > O O y.y.y.y.y.y.y.y.y.y.y.y.",
"y.y.y.y.y.y.y.y.y.y.y.y.O O > N ] r.r.r.r.r.r.r.%.+.X.X.X.O.+.%.&.] N > O O y.y.y.y.y.y.y.y.y.y.y.y.",
"y.y.y.y.y.y.y.y.y.y.y.y.O O > N ] r.r.r.r.r.r.r.*.*.&.*.%.%.&.&.r.] N > O O y.y.y.y.y.y.y.y.y.y.y.y.",
"y.y.y.y.y.y.y.y.y.y.y.y.O O > N ] r.r.r.r.r.r.r.*.*.r.r.r.r.*.*.r.] N > O O y.y.y.y.y.y.y.y.y.y.y.y.",
"y.y.y.y.y.y.y.y.y.y.y.y.O O > N ] r.r.r.r.r.r.r.r.r.r.r.r.r.*.*.r.] N > O O y.y.y.y.y.y.y.y.y.y.y.y.",
"y.y.y.y.y.y.y.y.y.y.y.y.O O > N ] r.r.r.r.r.r.r.r.r.r.r.r.r.r.r.r.] N > O O y.y.y.y.y.y.y.y.y.y.y.y.",
"y.y.y.y.y.y.y.y.y.y.y.y.O O > N ] r.r.r.r.r.r.r.r.r.r.r.r.r.r.r.r.] C > O O y.y.y.y.y.y.y.y.y.y.y.y.",
"y.y.y.y.y.y.y.y.y.y.y.O O O > N ] r.r.r.r.r.r.r.r.r.r.r.r.r.r.r.r.] N > O O O y.y.y.y.y.y.y.y.y.y.y.",
"y.y.y.y.y.y.y.y.y.O O O O O > N ] r.r.r.r.r.r.r.r.r.*.r.r.r.r.r.*.] N > O O O O O y.y.y.y.y.y.y.y.y.",
"y.y.y.y.y.y.y.y.y.O O + @ # 1 C { r.$.$.#.$.*.*.r.r.r.r.r.r.r.r.r.] N > O O O O O y.y.y.y.y.y.y.y.y.",
"y.y.y.y.y.y.y.y.y.O O $ 1 h N ! @.#.{ ! P ^ @.*.r.r.r.r.r.r.r.r.r.] N > O O O O O y.y.y.y.y.y.y.y.y.",
"y.y.y.y.y.y.y.y.y.O O > k S ^ } #.@.! N k A ] *.r.r.r.r.r.r.r.r.r.] N > O O y.y.y.y.y.y.y.y.y.y.y.y.",
"y.y.y.y.y.y.y.y.y.O O , Z } r.r.*.@.A 8 = l ! *.r.r.r.r.*.r.r.r.r.] N > O O y.y.y.y.y.y.y.y.y.y.y.y.",
"y.y.y.y.y.y.y.y.y.O O 1 C } r.r.*.@.! C l A { r.r.r.r.r.r.r.r.r.*.{ N > O O y.y.y.y.y.y.y.y.y.y.y.y.",
"y.y.y.y.y.y.y.y.y.O O 1 Z } r.r.*.$.} ^ ! ] O.r.r.r.r.r.r.r.r.r.*.] N ; O O O O O y.y.y.y.y.y.y.y.y.",
"y.y.y.y.y.y.y.y.y.O O 1 C } r.r.*.*.r.0.&.*.r.r.r.r.r.r.r.r.r.r.*.{ N > O O O O O y.y.y.y.y.y.y.y.y.",
"y.y.y.y.y.y.y.y.y.O O 1 C } *.r.*.*.r.r.r.r.e.e.r.r.e.r.r.r.r.r.*.] N > O O O O O y.y.y.y.y.y.y.y.y.",
"y.y.y.y.y.y.y.y.y.O O 1 C } r.r.r.*.r.r.r.e.w.w.6.w.w.e.e.r.r.r.*.{ N > O O O y.y.y.y.y.y.y.y.y.y.y.",
"y.y.y.y.y.y.y.y.y.O O 1 C } r.*.r.r.r.r.e.e.w.6.6.6.6.6.e.e.r.r.*._ N > O O y.y.y.y.y.y.y.y.y.y.y.y.",
"y.y.y.y.y.y.y.y.y.+ + 1 x ! ) [ ) [ } { [ ' ` R R R R ` ' [ [ ' _ D x > O y.y.y.y.y.y.y.y.y.y.y.y.y.",
"y.y.y.y.y.y.y.y.y.y.y.> h l x C F H F H F F B B B B B B F F F N M x 9 : y.y.y.y.y.y.y.y.y.y.y.y.y.y.",
"y.y.y.y.y.y.y.y.y.y.y.y.= = > 3 5 j 6 j j 6 j 6 e e e e e e 6 3 > = = y.y.y.y.y.y.y.y.y.y.y.y.y.y.y.",
"y.y.y.y.y.y.y.y.y.y.y.y.& * ; > 2 4 4 4 4 4 4 4 4 4 4 6 j j j 6 3 > : y.y.y.y.y.y.y.y.y.y.y.y.y.y.y.",
"y.y.y.y.y.y.y.y.y.y.y.y.a a y u 5 4 4 4 4 4 4 4 4 4 4 j n H H G m v e - y.y.y.y.y.y.y.y.y.y.y.y.y.y.",
"y.y.y.y.y.y.y.y.y.y.y.y.X X I d q 4 4 4 4 4 4 4 4 4 4 b K { <.,.>.=.v 2 O y.y.y.y.y.y.y.y.y.y.y.y.y.",
"y.y.y.y.y.y.y.y.y.y.y.y.o o Q f i 4 6 e j j j j j j j G ~ 9.0.t.4.;.b - O O y.y.y.y.y.y.y.y.y.y.y.y.",
"y.y.y.y.y.y.y.y.y.y.y.y.o o Q f 7 2 h n H H H H H H H / { $.0.t.7.;.b 2 O O y.y.y.y.y.y.y.y.y.y.y.y.",
"y.y.y.y.y.y.y.y.y.y.y.y.o o X s < = z L { { { { <.{ { 5.$.r.0.t.4.;.m : O O y.y.y.y.y.y.y.y.y.y.y.y.",
"y.y.y.y.y.y.y.y.y.y.y.y.y.o X p & = x ^ r.r.r.r.r.r.r.r.*.*.9.2.3.-.v : O y.y.y.y.y.y.y.y.y.y.y.y.y.",
"y.y.y.y.y.y.y.y.y.y.y.y.y.y.I t % = M ^ *.*.r.r.r.r.r.r.r.*.5.( J b r - y.y.y.y.y.y.y.y.y.y.y.y.y.y.",
"y.y.y.y.y.y.y.y.y.y.y.y.y.y.y.* @ = M ^ *.*.r.r.r.r.r.r.r.r.[ F j 5 2 y.y.y.y.y.y.y.y.y.y.y.y.y.y.y.",
"y.y.y.y.y.y.y.y.y.y.y.y.y.y.y.y.O : x ~ &.$.e.r.r.r.e.e.&.$.~ x = O y.y.y.y.y.y.y.y.y.y.y.y.y.y.y.y.",
"y.y.y.y.y.y.y.y.y.y.y.y.y.y.y.y.O $ h C P ^ 1.q.q.q.q.1.) P C k $ O y.y.y.y.y.y.y.y.y.y.y.y.y.y.y.y.",
"y.y.y.y.y.y.y.y.y.y.y.y.y.y.y.y.y.y.8 q k J :.7.7.7.7.:.F k q 5 y.y.y.y.y.y.y.y.y.y.y.y.y.y.y.y.y.y.",
"y.y.y.y.y.y.y.y.y.y.y.y.y.y.y.y.y.y.y.O @ j =.4.4.4.4.=.r # O y.y.y.y.y.y.y.y.y.y.y.y.y.y.y.y.y.y.y.",
"y.y.y.y.y.y.y.y.y.y.y.y.y.y.y.y.y.y.y.O # e V =.=.=.=.m e # O y.y.y.y.y.y.y.y.y.y.y.y.y.y.y.y.y.y.y.",
"y.y.y.y.y.y.y.y.y.y.y.y.y.y.y.y.y.y.y.y.y.3 w r r r j e 3 y.y.y.y.y.y.y.y.y.y.y.y.y.y.y.y.y.y.y.y.y.",
"y.y.y.y.y.y.y.y.y.y.y.y.y.y.y.y.y.y.y.y.y.y.@ @ @ @ @ @ y.y.y.y.y.y.y.y.y.y.y.y.y.y.y.y.y.y.y.y.y.y.",
"y.y.y.y.y.y.y.y.y.y.y.y.y.y.y.y.y.y.y.y.y.y.O O O O O O y.y.y.y.y.y.y.y.y.y.y.y.y.y.y.y.y.y.y.y.y.y."
};
