/* XPM */
static char *result[] = {
/* columns rows colors chars-per-pixel */
"50 50 108 2 ",
"   c #8E615E",
".  c #90625D",
"X  c #895F61",
"o  c #805968",
"O  c #8F6665",
"+  c #8B646C",
"@  c #936762",
"#  c #966A62",
"$  c #996B65",
"%  c #976E69",
"&  c #9C6D68",
"*  c #9E7265",
"=  c #9C736A",
"-  c #8D6972",
";  c #9C7570",
":  c #99787C",
">  c #A17567",
",  c #A37768",
"<  c #A67C6B",
"1  c #A97F6C",
"2  c #A47C72",
"3  c #AC7F77",
"4  c #AB816D",
"5  c #A78175",
"6  c #AB8474",
"7  c #AD877A",
"8  c #AF8A7C",
"9  c #B08770",
"0  c #B48B73",
"q  c #B1827B",
"w  c #B18E7E",
"e  c #BA9276",
"r  c #BF9779",
"t  c #BF9879",
"y  c #C39C7B",
"u  c #C7A17E",
"i  c #BC8E85",
"p  c #B49282",
"a  c #B99485",
"s  c #BA9987",
"d  c #B0948E",
"f  c #BF9489",
"g  c #BD9D8B",
"h  c #B39790",
"j  c #BFA08D",
"k  c #BBA196",
"l  c #BFA69A",
"z  c #C0948A",
"x  c #C7988F",
"c  c #CB9992",
"v  c #CBA681",
"b  c #CDA881",
"n  c #C1A38F",
"m  c #CCAB8C",
"M  c #D3AE85",
"N  c #D5B286",
"B  c #D8B487",
"V  c #D4B18A",
"C  c #D9B689",
"Z  c #DCB98A",
"A  c #C3A592",
"S  c #CDA396",
"D  c #C6AA94",
"F  c #C9AB92",
"G  c #C6AE9F",
"H  c #D0AA9A",
"J  c #CEB49C",
"K  c #D2B596",
"L  c #D6B997",
"P  c #DFBF91",
"I  c #D0B49E",
"U  c #D5B999",
"Y  c #DFA4A1",
"T  c #CEB8A5",
"R  c #DEB3A6",
"E  c #D3BBA3",
"W  c #E0A7A2",
"Q  c #E2A9A4",
"!  c #E5AFA8",
"~  c #E6B2AA",
"^  c #E8B5AC",
"/  c #E9B9AE",
"(  c #DDC29F",
")  c #E1C296",
"_  c #E3C69B",
"`  c #E4C89E",
"'  c #D7C0A6",
"]  c #DDC5A5",
"[  c #DBC6AB",
"{  c #DFCAAD",
"}  c #E1C7A1",
"|  c #E6CDA3",
" . c #E0CCAF",
".. c #E8D0A7",
"X. c #E9D3AB",
"o. c #EBC2B2",
"O. c #E3CCB0",
"+. c #EDCAB6",
"@. c #E5D3B5",
"#. c #E9D7B5",
"$. c #EEDBB5",
"%. c #EED1B9",
"&. c #EDDCBA",
"*. c #F0D7BC",
"=. c #F1DCBC",
"-. c #F1E1BD",
";. c #F3E5C2",
":. c None",
/* pixels */
":.:.:.:.:.:.:.:.:.:.:.:.:.:.:.:.:.:.:.:.:.:.:.:.:.:.:.:.:.:.:.:.:.:.:.:.:.:.:.:.:.:.:.:.:.:.:.:.:.:.",
":.:.:.:.:.:.:.:.:.:.:.:.:.:.:.:.:.:.:.:.:.:.:.:.:.:.:.:.:.:.:.:.:.:.:.:.:.:.:.:.:.:.:.:.:.:.:.:.:.:.",
":.:.:.:.:.:.:.:.:.:.:.:.:.:.:.:.:.:.:.:.:.:.:.:.:.:.:.:.:.:.:.:.:.:.:.:.:.:.:.:.:.:.:.:.:.:.:.:.:.:.",
":.:.:.:.:.:.:.:.:.:.:.:.:.:.:.:.:.:.:.:.:.:.:.:.:.:.:.:.:.:.:.:.:.:.:.:.:.:.:.:.:.:.:.:.:.:.:.:.:.:.",
":.:.:.:.:.:.:.:.:.:.:.:.:.:.:.:.:.:.:.:.:.:.:.:.:.:.:.:.:.:.:.:.:.:.:.:.:.:.:.:.:.:.:.:.:.:.:.:.:.:.",
":.:.:.:.:.:.:.:.:.:.:.:.:.:.:.:.:.:.:.:.:.:.:.:.:.:.:.:.:.:.:.:.:.:.:.:.:.:.:.:.:.:.:.:.:.:.:.:.:.:.",
":.:.:.:.:.:.:.:.:.:.:.:.:.:.:.:.:.:.:.:.:.:.:.:.:.:.:.:.:.:.:.:.:.:.:.:.:.:.:.:.:.:.:.:.:.:.:.:.:.:.",
":.:.:.:.:.:.:.:.:.:.:.:.:.:.:.:.:.:.:.:.:.:.:.:.:.:.:.:.. . . :.:.:.:.. . . :.:.:.:.:.:.:.:.:.:.:.:.",
":.:.:.:.:.:.:.:.:.:.:.:.:.:.:.:.:.:.:.:.:.:.:.:.:.:.:.:.. . . :.:.:.:.. . . :.:.:.:.:.:.:.:.:.:.:.:.",
":.:.:.:.:.:.:.:.:.:.:.:.:.:.:.:.:.:.:.:.:.:.:.:.:.:.:.5 w = . :.:.:.:.. = w 6 :.:.:.:.:.:.:.:.:.:.:.",
":.:.:.:.:.:.:.:.:.:.:.:.:.:.:.:.:.:.:.:.:.:.:.:.:.:.. a @.s . :.:.:.:.. a @.g . :.:.:.:.:.:.:.:.:.:.",
":.:.:.:.:.:.:.:.:.:.:.:.:.:.:.:.:.:.:.:.:.:.:.:.:.:.. s ;.j . . :.:.. . s -.g . :.:.:.:.:.:.:.:.:.:.",
":.:.:.:.:.:.:.:.:.:.:.:.:.:.:.:.:.:.:.:.O       :.:.. s ;.n . . . . . . s -.j   :.:.:.:.. . . :.:.:.",
":.:.:.:.:.:.:.:.:.:.:.:.:.:.:.:.:.:.:.. p D F j 2 . . w } m e e e e e e K ;.[ A 7 .   6 A D D p . . ",
":.:.:.:.:.:.:.:.:.:.:.:.:.:.:.:.:.:.:.. D ;.;.O.w = = 0 C Z Z Z Z Z Z Z | ;.;.&.s % @ 8 @.;.;.j . . ",
":.:.:.:.:.:.:.:.:.:.:.:.. . . . . . . . D ;.;.&.[ U U L Z Z Z Z C Z Z C | ;.;.-.{ D , 8 @.;.;.g . . ",
":.:.:.:.:.:.:.:.:.:.:.* , < , < < 2 = . A *.*.=.;.-.$.| Z Z C b v V Z ) ..-.@.[ &. .5 p O.*.*.g . . ",
":.:.:.:.:.:.:.:.. . . 0 u u u u V ' g @ f o.o.o.=.$.` P Z Z V 6 ; v _ #.=.;.D : T  .2 2 R / o.i . . ",
":.:.:.:.:.:.:.* 1 1 4 y Z Z Z Z _ -.' p f c c S I U Z Z Z Z V = + D X.=.;.;.d o G @.k a c c c q . . ",
":.:.:.:.:.:.. 1 u M N Z Z Z Z Z _ &.-.#.g $ $ $ & 6 N Z Z Z M ; - E ;.;.;.;.d o G =.&.T 2 $ $ $ :.:.",
":.:.:.:.:.:.. 1 N Z Z Z Z Z ) ` X.-.;.;.' g j g g F ] | | | ] A k @.;.;.;.;.T h [ ;.;.E 2   . :.:.:.",
":.:.:.:.:.:.. 1 M Z Z Z Z Z ) X.;.;.;.;.;.-.;.;.;.;.;.;.;.;.;.;.;.;.;.;.;.;.;.;.;.;.;.E = . :.:.:.:.",
":.:.:.:.:.. . < M Z Z _ X.X.X.-.;.;.;.;.;.;.;.;.;.;.;.;.;.;.;.;.=.%.+.+.+.+.+.+.+.+.+.H & . :.:.:.:.",
":.:.:.:.# # . < N ) Z X.;.;.;.;.;.;.;.-.-.-.-.;.;.-.&.&.;.;.;.;.&.o.^ ~ ^ ^ ^ ^ ^ ~ ^ c & . :.:.:.:.",
":.:.:.# 0 e $ 6 } #.X.-.;.;.;.;.-.-.$.` ` ` -.-.;.{ s J -.;.;.%./ / ~ Y Q ^ ^ ~ Q W ^ c & . :.:.:.:.",
":.:.* < e y * w #.;.;.;.;.;.;.;.-.-.` Z Z Z | $.-.[ w g [ #.;.+.^ ^ ! Y Q ^ ^ ~ Q W ~ c & . :.:.:.:.",
". . 0 y 9 * . w #.-.;.;.;.;.;.;.-._ ) Z Z Z ( _ $.&. .D 5 J =.+.^ ^ ^ ! ~ ^ ^ ^ ! ! ^ c & . :.:.:.:.",
". . 4 y < . . w $.;.;.;.;.;.;.;.-.` ) Z Z Z ) | -.;.;.' p A I S c c c c c c c c c c c i $ :.:.:.:.:.",
". . # # :.:.. w X.-.;.;.;.-.-.-.-.-.X.) Z Z X.-.;.;.;.-.@.j = $ $ $ $ & $ $ & $ $ & $ $ :.:.:.:.:.:.",
". . . . :.:.. 6 _ X.X.X.X.X.X.-.-.-.$.` | ..-.;.;.;.;.$.X.m 0 0 4 $ . . . . . . . . . :.:.:.:.:.:.:.",
":.:.:.:.:.:.. < u ) Z Z ) Z ) $.;.-.-.-.;.;.;.;.;.;.;.X.Z Z C C b , . :.:.:.:.:.:.:.:.:.:.:.:.:.:.:.",
":.:.:.:.:.:.. 1 u Z Z Z Z Z ) ` ..| ....| | | | | | | _ Z Z Z Z b , . :.:.:.:.:.:.:.:.:.:.:.:.:.:.:.",
":.:.:.:.:.:.  < v B Z Z C B M M M M M M C C Z C N N M M M C Z Z u ,   :.:.:.:.:.:.:.:.:.:.:.:.:.:.:.",
":.:.:.:.:.:.:.% < r Z Z C e 4 1 1 4 4 1 y Z Z M 0 4 1 1 4 y Z Z M ,   :.:.:.:.:.:.:.:.:.:.:.:.:.:.:.",
":.:.:.:.:.:.:.:.. 9 C Z N 4 .         . e C Z b , .   . . e Z Z v ,   :.:.:.:.:.:.:.:.:.:.:.:.:.:.:.",
":.:.:.:.:.:.:.:.. 9 C Z N 4 . :.:.:.X   e Z Z b ,   :.X . e Z Z b ,   :.:.:.:.:.:.:.:.:.:.:.:.:.:.:.",
":.:.:.:.:.:.:.:.X 4 y y r < X :.:.:.:.  4 y y e * X :.:.O 4 y y e = X :.:.:.:.:.:.:.:.:.:.:.:.:.:.:.",
":.:.:.:.:.:.:.:.:.@ # # # :.:.:.:.:.:.:.@ $ $ # :.:.:.:.:.@ # # # :.:.:.:.:.:.:.:.:.:.:.:.:.:.:.:.:.",
":.:.:.:.:.:.:.:.:.:.X X X :.:.:.:.:.:.:.:.O X X :.:.:.:.:.:.X X O :.:.:.:.:.:.:.:.:.:.:.:.:.:.:.:.:.",
":.:.:.:.:.:.:.:.:.:.:.:.:.:.:.:.:.:.:.:.:.:.:.:.:.:.:.:.:.:.:.:.:.:.:.:.:.:.:.:.:.:.:.:.:.:.:.:.:.:.",
":.:.:.:.:.:.:.:.:.:.:.:.:.:.:.:.:.:.:.:.:.:.:.:.:.:.:.:.:.:.:.:.:.:.:.:.:.:.:.:.:.:.:.:.:.:.:.:.:.:.",
":.:.:.:.:.:.:.:.:.:.:.:.:.:.:.:.:.:.:.:.:.:.:.:.:.:.:.:.:.:.:.:.:.:.:.:.:.:.:.:.:.:.:.:.:.:.:.:.:.:.",
":.:.:.:.:.:.:.:.:.:.:.:.:.:.:.:.:.:.:.:.:.:.:.:.:.:.:.:.:.:.:.:.:.:.:.:.:.:.:.:.:.:.:.:.:.:.:.:.:.:.",
":.:.:.:.:.:.:.:.:.:.:.:.:.:.:.:.:.:.:.:.:.:.:.:.:.:.:.:.:.:.:.:.:.:.:.:.:.:.:.:.:.:.:.:.:.:.:.:.:.:.",
":.:.:.:.:.:.:.:.:.:.:.:.:.:.:.:.:.:.:.:.:.:.:.:.:.:.:.:.:.:.:.:.:.:.:.:.:.:.:.:.:.:.:.:.:.:.:.:.:.:.",
":.:.:.:.:.:.:.:.:.:.:.:.:.:.:.:.:.:.:.:.:.:.:.:.:.:.:.:.:.:.:.:.:.:.:.:.:.:.:.:.:.:.:.:.:.:.:.:.:.:.",
":.:.:.:.:.:.:.:.:.:.:.:.:.:.:.:.:.:.:.:.:.:.:.:.:.:.:.:.:.:.:.:.:.:.:.:.:.:.:.:.:.:.:.:.:.:.:.:.:.:.",
":.:.:.:.:.:.:.:.:.:.:.:.:.:.:.:.:.:.:.:.:.:.:.:.:.:.:.:.:.:.:.:.:.:.:.:.:.:.:.:.:.:.:.:.:.:.:.:.:.:.",
":.:.:.:.:.:.:.:.:.:.:.:.:.:.:.:.:.:.:.:.:.:.:.:.:.:.:.:.:.:.:.:.:.:.:.:.:.:.:.:.:.:.:.:.:.:.:.:.:.:.",
":.:.:.:.:.:.:.:.:.:.:.:.:.:.:.:.:.:.:.:.:.:.:.:.:.:.:.:.:.:.:.:.:.:.:.:.:.:.:.:.:.:.:.:.:.:.:.:.:.:."
};
