/* XPM */
static char *result[] = {
/* columns rows colors chars-per-pixel */
"50 50 84 1 ",
"  c #C0D470",
". c #BED36F",
"X c #BDD26F",
"o c #BFD370",
"O c #B4CC6A",
"+ c #ABC766",
"@ c #ADC767",
"# c #BAD06D",
"$ c #BCD16E",
"% c #B5CD6B",
"& c #B8CF6C",
"* c #BFD36F",
"= c #B9CF6D",
"- c #A4C263",
"; c #A5C363",
": c #B0CA69",
"> c #AAC666",
", c #BFD470",
"< c #ADC867",
"1 c #AEC867",
"2 c #B2CB6A",
"3 c #A6C364",
"4 c #ACC767",
"5 c #A7C465",
"6 c #A7C464",
"7 c #B3CC6A",
"8 c #BBD16E",
"9 c #A5C364",
"0 c #B1CA69",
"q c #B0CA68",
"w c #AFC968",
"e c #B2CB69",
"r c #B9D06D",
"t c #BCD26E",
"y c #B6CD6B",
"u c #B7CE6C",
"i c #A8C565",
"p c #BED26F",
"a c #A8C465",
"s c #B4CC6B",
"d c #BBD16D",
"f c #B3CB6A",
"g c #B6CE6B",
"h c #A9C565",
"j c #B1CB69",
"k c #B7CF6C",
"l c #A6C464",
"z c #BDD26E",
"x c #C3D671",
"c c #C7D973",
"v c #C4D772",
"b c #C6D873",
"n c #C2D571",
"m c #D2E077",
"M c #C9DA74",
"N c #CBDB74",
"B c #D1DF77",
"V c #C6D872",
"C c #C1D570",
"Z c #C9DA73",
"A c #CEDD76",
"S c #CFDE76",
"D c #CADB74",
"F c #C4D671",
"G c #CEDD75",
"H c #CCDC75",
"J c #C5D772",
"K c #CDDD75",
"L c #C5D872",
"P c #C1D470",
"I c #D1E077",
"U c #CDDC75",
"Y c #CCDC74",
"T c #C7D873",
"R c #D0DF76",
"E c #D0DE76",
"W c #C1D571",
"Q c #C2D671",
"! c #CBDC74",
"~ c #C8DA73",
"^ c #C4D771",
"/ c #CEDE76",
"( c #D1DF76",
") c #C8D973",
/* pixels */
"                                                  ",
"                                                  ",
"                                  .XXXXXXXo       ",
"                                  O++++++@#       ",
"    $%%%%%&*                   =%%+------;:=      ",
"    %----->$,                 *<-----------1,     ",
"  .2>-----341:$              =<5-----------1,     ",
"  X+---------678             %-------------1,     ",
"  X+----------90             %-------------1,     ",
"  X+-----------q             $O>---------;w&      ",
"  X+-----------q               e>>>>>>>>>+r       ",
"  X+-----------q               X$$$$$$$$$t*       ",
"  *y<--------3w&                        #eeee8    ",
"    uiiiiiiii+8             X$$$$$.   ,Xe----7X   ",
"    p########8*            .q>>>>>u   Xwa----aq.  ",
"             .usssss$     dfi-----<u. $>------+X  ",
"            o8>-----s*    7-------->$ t+;----;@X  ",
"            g+3-----hj.   7-------->$ *rw----:#o  ",
"            e--------+X   k<l----->eX   &1111=    ",
"            e--------+X    z+-----O      ,,,,     ",
"            87a-----w&o    o&%%%%%$               ",
"             Xq+++++&                             ",
"              .XXXXXo                             ",
"                                                  ",
"                                                  ",
"                                                  ",
"                                                  ",
"                                                  ",
"                                                  ",
"    xcccccccx                     vccccccbn       ",
"    cmmmmmmmM                     NmmmmmmBV       ",
"  CZAmmmmmmmSDx                 FNSmmmmmmmGHHJ    ",
"  nKmmmmmmmmmSv                 LBmmmmmmmmmmmDvP  ",
"  nKmmmmmmmmmSv                 LBmmmmmmmmmmmIUn  ",
"  CVYmmmmmmmKTn                 LBmmmmmmmmmmmmKn  ",
"    LGGGGGGGc                   vKRmmmmmmmmmmEDW  ",
"    CxxxxxxxC                   CQ!mmmmmmmmmm~n   ",
"             CcMMMMMx             JZZZZZZZZZZx    ",
"          PnxJSmmmmm~n       Cxxxxxn              ",
"          xHGSBmmmmmEDW      LGGGGGNn             ",
"          vSmmmmmmmmmKn    CVYmmmmmEM^            ",
"   CCCCC  FSImmmmmmmIUn    nKmmmmmmmmZ            ",
"  CMUUUZC CJHmmmmmmmDvP    nKmmmmmmmmZ            ",
" xcSmmm/cx  VHHHHHHHJ      CZAmmmmm(UV            ",
" )mmmmmmmc                   cmmmmmGx             ",
" ~mmmmmmm)                   xcccccLC             ",
" VGBmmm(GV                                        ",
" CxGmmmKxC                                        ",
"  CV~~~V                                          ",
"                                                  "
};
