/* XPM */
static char *result[] = {
/* columns rows colors chars-per-pixel */
"50 50 118 2 ",
"   c #4E498D",
".  c #504D8F",
"X  c #524F91",
"o  c #545492",
"O  c #5A5795",
"+  c #565894",
"@  c #585997",
"#  c #5C5E9B",
"$  c #5E629D",
"%  c #61679F",
"&  c #6C679D",
"*  c #64699F",
"=  c #6D699D",
"-  c #706B9F",
";  c #6266A2",
":  c #646AA3",
">  c #6D6DA1",
",  c #6771A1",
"<  c #6D76A4",
"1  c #6F79A5",
"2  c #6A74A9",
"3  c #6F7BAE",
"4  c #7374A4",
"5  c #7377AA",
"6  c #757CAA",
"7  c #6F7CB0",
"8  c #727FB2",
"9  c #817FA8",
"0  c #7782AE",
"q  c #7B82A9",
"w  c #7F8AAE",
"e  c #7582B6",
"r  c #7984B2",
"t  c #7E8CB7",
"y  c #7C8DBD",
"u  c #8583AC",
"i  c #8189AB",
"p  c #888AAE",
"a  c #858DB1",
"s  c #8C8EB2",
"d  c #808EB8",
"f  c #928FB2",
"g  c #8690B5",
"h  c #8B93B0",
"j  c #8595BE",
"k  c #8995B8",
"l  c #8D99BD",
"z  c #9395B4",
"x  c #9B9AB5",
"c  c #969DB8",
"v  c #9D9CB9",
"b  c #9EA3BC",
"n  c #A4A3BC",
"m  c #A8A6BE",
"M  c #A4ABBB",
"N  c #ABB1BE",
"B  c #8295C4",
"V  c #8B9CC5",
"C  c #93A0C3",
"Z  c #9EA8C4",
"A  c #94A6CB",
"S  c #98A7C9",
"D  c #97A8CC",
"F  c #9CACCD",
"G  c #A5ABC2",
"H  c #ABADC2",
"J  c #A1AFCE",
"K  c #B0AEC2",
"L  c #A7B0C0",
"P  c #ABB3C3",
"I  c #A2B1CF",
"U  c #A9B2C9",
"Y  c #AFBBCB",
"T  c #B2B4C5",
"R  c #B8B7C6",
"E  c #B5BAC7",
"W  c #B9B9C7",
"Q  c #B5BDCC",
"!  c #BBBCC9",
"~  c #ADBBD3",
"^  c #B3BED3",
"/  c #C0BFCB",
"(  c #BDC2CB",
")  c #B7C2D5",
"_  c #BAC4D6",
"`  c #BEC8D7",
"'  c #BFC9D8",
"]  c #C1C6C6",
"[  c #C3C4CD",
"{  c #C8C7CF",
"}  c #C4CDCF",
"|  c #C9CECA",
" . c #CED3CC",
".. c #C5C9D0",
"X. c #CACBD2",
"o. c #C2CBD9",
"O. c #D0CFD4",
"+. c #CCD1D3",
"@. c #CBD3DB",
"#. c #D3D5D6",
"$. c #D6DAD1",
"%. c #DBDED7",
"&. c #D2D6D9",
"*. c #D5DBDD",
"=. c #DADBDA",
"-. c #DDE1D3",
";. c #DFE2DE",
":. c #E1E4D6",
">. c #E3E5DD",
",. c #E6E9DB",
"<. c #E8EBDD",
"1. c #DCE2E0",
"2. c #E2E6E2",
"3. c #E6E9E3",
"4. c #EDEEE3",
"5. c #EFF0E3",
"6. c #F3F4E7",
"7. c None",
/* pixels */
"7.7.7.7.7.7.7.7.7.7.7.7.7.7.7.7.6.6.6.6.6.6.6.6.6.6.6.6.6.6.6.6.6.6.7.7.7.7.7.7.7.7.7.7.7.7.7.7.7.7.",
"7.7.7.7.7.7.7.7.7.7.7.7.7.7.7.4.4.4.4.4.4.4.4.4.4.4.4.5.5.4.4.4.4.4.4.7.7.7.7.7.7.7.7.7.7.7.7.7.7.7.",
"7.7.7.7.7.7.7.7.7.7.7.7.7.7.7.X./ ! ! ! ! ! ! W ! ! ! ! ! ! ! R R ! { 7.7.7.7.7.7.7.7.7.7.7.7.7.7.7.",
"7.7.7.7.7.7.7.7.7.7.7.7.7.6.=.R x p a a p p p p a p p p u s u u 9 f K =.6.7.7.7.7.7.7.7.7.7.7.7.7.7.",
"7.7.7.7.7.7.7.7.7.7.7.7.6.6.=.n 4 O @ + + + + + + + + + @ + + .   > v =.6.6.7.7.7.7.7.7.7.7.7.7.7.7.",
"7.7.7.7.7.7.7.7.7.7.7.7.X.[ T c 6 : : : : : : : : : : $ ; $ $ # @ > s K [ X.7.7.7.7.7.7.7.7.7.7.7.7.",
"7.7.7.7.7.7.7.7.7.7.6.&.E v s a r 8 e 8 e e 8 e e e e e 2 , : : ; > 5 9 z K #.6.7.7.7.7.7.7.7.7.7.7.",
"7.7.7.7.7.7.7.7.7.6.6.#.n 4 : 5 y B B B B B B B B B B y e e 3 0 8 2 & O - x O.6.6.7.7.7.7.7.7.7.7.7.",
"7.7.7.7.7.7.7.7.7.7.6.#.H s 6 r 8 y y 8 e 8 d 8 e e e 8 3 2 2 : 2 > 2 4 u m O.6.7.7.7.7.7.7.7.7.7.7.",
"7.7.7.7.7.7.7.7.7.7.7.=.[ R m s 5 ; ; : > ; ; & : : : ; # # # # # > u v T / =.7.7.7.7.7.7.7.7.7.7.7.",
"7.7.7.7.7.7.7.7.7.7.7.7.2.>.X.v - X X X X X . X X o X X X X X X . > x X.>.;.7.7.7.7.7.7.7.7.7.7.7.7.",
"7.7.7.7.7.7.7.7.7.7.7.7.2.1.X.G 9 - - - - - - - = , - - - - = & & 9 M ..1.2.7.7.7.7.7.7.7.7.7.7.7.7.",
"7.7.7.7.7.7.7.7.7.7.7.1.@.` ^ T K m m n n n n n n n n n n n v v x b N Q ' @.1.7.7.7.7.7.7.7.7.7.7.7.",
"7.7.7.7.7.7.7.7.7.7.6.1.` I J ^ @.=.=.=.=.=.=.=.=.=.=.=.=.=.#. .| ( U F I ' 1.6.7.7.7.7.7.7.7.7.7.7.",
"7.7.7.7.7.7.7.7.7.6.6.1._ D D _ 1.6.6.6.6.6.6.6.6.6.6.6.6.6.5.,.-.+.Y A D _ 1.6.6.7.7.7.7.7.7.7.7.7.",
"7.7.7.7.7.7.7.7.7.6.6.1._ D D _ 1.6.6.6.6.6.6.6.6.6.6.6.6.6.5.,.-. .Y A D _ 1.6.6.7.7.7.7.7.7.7.7.7.",
"7.7.7.7.7.7.7.7.7.6.6.1.) D D _ 1.6.6.6.6.6.6.6.6.6.6.6.6.6.6.3.-.+.) A A ) 1.5.6.7.7.7.7.7.7.7.7.7.",
"7.7.7.7.7.7.7.7.7.6.6.1._ D D _ 1.6.6.6.6.6.6.6.6.6.6.6.6.6.4.>.-. .) V A ) ;.6.6.7.7.7.7.7.7.7.7.7.",
"7.7.7.7.7.7.7.7.7.6.6.1._ D D _ 1.6.6.6.6.6.6.6.6.6.6.6.6.6.4.,.-. .) A A _ ;.6.6.7.7.7.7.7.7.7.7.7.",
"7.7.7.7.7.7.7.7.7.6.6.1._ D D ' 1.6.6.6.6.6.6.6.6.6.6.6.6.6.4.,.-.} P C D _ ;.6.6.7.7.7.7.7.7.7.7.7.",
"7.7.7.7.7.7.7.7.7.4.4.1._ D I ' 1.6.6.6.6.6.6.6.6.6.6.6.6.6.5.,.-. .) S D ) ;.4.5.7.7.7.7.7.7.7.7.7.",
"7.7.7.7.7.7.7.7.1.*.@.' _ ^ ' @.3.6.6.6.6.6.6.6.6.6.6.6.6.6.5.,.-. .` ) Y Y ) } @.;.7.7.7.7.7.7.7.7.",
"7.7.7.7.7.7.6.6.1.' ~ ~ _ @.1.2.4.6.6.6.6.6.6.6.6.6.6.6.6.6.5.,.-.-. .} ) Y Z Z ( &.6.6.7.7.7.7.7.7.",
"7.7.7.7.7.7.6.6.*.~ A F ' 2.6.6.6.6.6.6.6.6.6.6.6.6.6.6.6.6.4.,.-.-.-.-. .N k t U @.6.6.7.7.7.7.7.7.",
"7.7.7.7.7.7.6.6.*.^ A F ' 2.6.6.6.6.6.6.6.6.6.6.6.6.6.6.6.6.5.,.-.-.-.-.| L k t U &.6.6.7.7.7.7.7.7.",
"7.7.7.7.7.7.6.6.*.^ A D ' 2.6.6.6.6.6.6.6.6.6.6.6.6.6.6.6.6.5.,.-.-.-.-. .P k t U &.6.6.7.7.7.7.7.7.",
"7.7.7.7.7.7.6.6.*.^ A F ' 2.6.6.6.6.6.6.6.6.6.6.6.6.6.6.6.6.5.,.-.-.-.-. .L k t U @.6.6.7.7.7.7.7.7.",
"7.7.7.7.7.7.6.6.*.~ V S ' 2.6.6.6.6.6.6.6.6.6.6.6.6.6.6.6.6.4.,.-.-.-.-.| L g r G &.6.6.7.7.7.7.7.7.",
"7.7.7.7.7.7.6.6.&.~ j C ! >.6.6.6.6.6.6.6.6.6.6.6.6.6.6.6.6.5.,.-.-.-.-. .M i 6 M +.6.6.7.7.7.7.7.7.",
"7.7.7.7.7.7.6.6.O.U d l ! >.6.6.6.6.6.6.6.6.6.6.6.6.6.6.6.6.4.,.-.-.-.-.| M q 1 b X.6.6.7.7.7.7.7.7.",
"7.7.7.7.7.7.6.6.&.U d l ^ 2.6.6.6.6.6.6.6.6.6.6.6.6.6.6.6.6.5.,.-.-.-.-.| b q < b +.6.6.7.7.7.7.7.7.",
"7.7.7.7.7.7.6.6.&.U t l ^ 2.6.6.6.6.6.6.6.6.6.6.6.6.6.6.6.6.4.,.-.-.-.-.| M q < b @.6.6.7.7.7.7.7.7.",
"7.7.7.7.7.7.6.6.*.I t V W ;.6.6.6.6.6.6.6.6.6.6.6.6.6.6.6.6.5.,.:.-.-.-.| M q , M | 6.6.7.7.7.7.7.7.",
"7.7.7.7.7.7.6.6.*.I t l ^ ;.6.6.6.6.6.6.6.6.6.6.6.6.6.6.5.6.<.:.-.-.-.-.] M q 1 b  .6.6.7.7.7.7.7.7.",
"7.7.7.7.7.7.6.6.&.U t l Q 1.6.6.6.6.6.6.6.6.6.6.6.6.6.6.5.,.:.:.-.-.-.-.| M q 1 b } 6.6.7.7.7.7.7.7.",
"7.7.7.7.7.7.6.6.&.U t l Q >.6.6.6.6.6.6.6.6.6.6.6.6.6.5.<.:.-.-.-.-.-.-.] M q < b  .6.6.7.7.7.7.7.7.",
"7.7.7.7.7.7.6.6.&.G t k Q ;.6.6.6.6.5.5.5.5.5.5.5.5.6.<.,.-.-.-.-.-.-.-.| M q 1 b +.6.6.7.7.7.7.7.7.",
"7.7.7.7.7.7.6.6.+.G 0 g E 1.6.6.6.6.5.4.<.<.<.,.<.<.<.,.:.-.-.-.-.$.-.-.| M q 1 b +.6.6.7.7.7.7.7.7.",
"7.7.7.7.7.7.6.6.@.n 6 a T ;.6.6.6.6.<.,.:.:.:.:.:.:.:.-.-.-.-.-.-.-.$.-.| b q 1 b +.6.6.7.7.7.7.7.7.",
"7.7.7.7.7.7.6.6.+.M q p H #.2.2.,.,.-.$. . . . . . . . . . . . . . . . .] M q q M @.6.6.7.7.7.7.7.7.",
"7.7.7.7.7.7.6.6.&.E M n P R E E E E P N N M M N M N M M M M N M M M N M M M n M E &.6.6.7.7.7.7.7.7.",
"7.7.7.7.7.7.7.7.7.&.+.( G k a p a p i i i i i q i i i q i w w q i i w i h M ( @.&.7.7.7.7.7.7.7.7.7.",
"7.7.7.7.7.7.7.7.7.6.6.&.M q , , , , , , , , , , , , , , , , , , , , : , q M #.6.6.7.7.7.7.7.7.7.7.7.",
"7.7.7.7.7.7.7.7.7.7.6.=.Q b c b c c c c b c c c c x c c b x c b z b c c G E =.6.7.7.7.7.7.7.7.7.7.7.",
"7.7.7.7.7.7.7.7.7.7.7.7.+.X...............[ } } | | } } ........| } } [ X.@.7.7.7.7.7.7.7.7.7.7.7.7.",
"7.7.7.7.7.7.7.7.7.7.7.7.6.6.6.6.6.6.6.6.6.6.6.6.5.6.6.6.6.6.6.6.6.6.6.6.6.6.7.7.7.7.7.7.7.7.7.7.7.7.",
"7.7.7.7.7.7.7.7.7.7.7.7.6.6.6.6.6.6.6.6.6.6.6.6.6.6.6.6.6.6.6.6.6.6.6.6.6.6.7.7.7.7.7.7.7.7.7.7.7.7.",
"7.7.7.7.7.7.7.7.7.7.7.7.6.6.6.6.6.6.6.6.6.6.6.6.6.6.6.6.6.6.6.6.6.6.6.6.6.6.7.7.7.7.7.7.7.7.7.7.7.7.",
"7.7.7.7.7.7.7.7.7.7.7.7.7.7.7.7.7.7.7.7.7.7.7.7.7.7.7.7.7.7.7.7.7.7.7.7.7.7.7.7.7.7.7.7.7.7.7.7.7.7.",
"7.7.7.7.7.7.7.7.7.7.7.7.7.7.7.7.7.7.7.7.7.7.7.7.7.7.7.7.7.7.7.7.7.7.7.7.7.7.7.7.7.7.7.7.7.7.7.7.7.7."
};
