/* XPM */
static char *result[] = {
/* columns rows colors chars-per-pixel */
"50 50 36 1 ",
"  c #9BD4C3",
". c #B0DFBE",
"X c #B1E0BE",
"o c #A0D7C2",
"O c #A8DBC0",
"+ c #AEDEBF",
"@ c #A6DAC1",
"# c #A2D8C1",
"$ c #A9DCC0",
"% c #AADCC0",
"& c #9ED6C2",
"* c #A4D9C1",
"= c #A3D8C1",
"- c #A3D9C1",
"; c #9DD5C3",
": c #9FD6C2",
"> c #9ED5C2",
", c #9CD5C3",
"< c #9CD4C3",
"1 c #A1D7C2",
"2 c #A6DAC0",
"3 c #A5DAC1",
"4 c #9DD5C2",
"5 c #AFDFBE",
"6 c #ADDEBF",
"7 c #ABDDBF",
"8 c #A7DBC0",
"9 c #ACDDBF",
"0 c #AADCBF",
"q c #A5D9C1",
"w c #AFDFBF",
"e c #A1D8C2",
"r c #AEDFBF",
"t c #ABDCBF",
"y c #A7DAC0",
"u c #A0D6C2",
/* pixels */
"          .XXo         OX+          X@         #XX",
"          .XXo         OX+          X@         #XX",
"          $%%&         *%O          %=         o%%",
"          =--;         o-#          -:         >--",
"          ,,,          <,,          ,<          ,,",
"     &1o          11,          o1:         ,11    ",
"     #O2          OO&          3O=         4OO    ",
"     @56          55o          758         :55    ",
"     *90          99:          $9@         &99    ",
"     o3*          33>          -31         ;33    ",
"     ;&&          &&<          >&;         <&&    ",
"                                                  ",
"                                                  ",
"                                                  ",
"&&,        <&&&;         &&&         ;&&         >",
"33&        4333#         333         o3q         *",
"99o        :9992         999         *97         %",
"ww1        :wwwO         www         qw+         9",
"OO:        &OOO-         OOO         1O8         @",
"11;        ,111:         111         &1o         o",
"                                                  ",
"                                                  ",
"                                                  ",
"                                                  ",
"       ###          1##&        <###        &##o  ",
"       %%%<         @%%1        ,%%%        #%%3  ",
"       XXX,         7XX*        ;XXX        qXX%  ",
"       %%%,         2%%e        ;%%%        #%%@  ",
"       ---<         1--:        <---        :--1  ",
"       ,,,          ,,,<         ,,,        <,,,  ",
"   1:          ;1<           1>          :1       ",
"   O*          :O,           O1          =O       ",
"   r%          #5;           5*          85       ",
"   9O          19;           9=          @9       ",
"   q#          &3,           3o          13       ",
"   &4          ,&            &,          ;&       ",
"          ::;         ,::&          ::<         4:",
"          32o         &22*          224         12",
"          96*         o66t          66:         36",
"     ;&&  6+*     <&& 1++7     >&;  ++:    &&<  @+",
"     o3*  2y1     ;33 :yy3     -31  yy>    33>  #y",
"     *90  uo4     &99 ,oo:     $9@  oo,    99:  &o",
"     @w6          :ww          7w8         wwo    ",
"     #O2          4OO          3O=         OO&    ",
"     &1o          ,11          o1:         11,    ",
"                                                  ",
"                                                  ",
"                                                  ",
"                                                  ",
"                                                  "
};
